<?xml version="1.0" encoding="UTF-8"?> <!-- Generator: Adobe Illustrator 22.0.0, SVG Export Plug-In . SVG Version: 6.00 Build 0) --> <svg xmlns="http://www.w3.org/2000/svg" xmlns:xlink="http://www.w3.org/1999/xlink" x="0px" y="0px" viewBox="0 0 3840 2160" style="enable-background:new 0 0 3840 2160;" xml:space="preserve"> <style type="text/css"> .Drop_x0020_Shadow{fill:none;} .st0{fill:#E7CF36;} .st1{opacity:0.15;clip-path:url(#SVGID_2_);} .st2{fill:none;stroke:#000000;stroke-miterlimit:10;} .st3{fill:none;stroke:#FFFFFF;stroke-miterlimit:10;} .st4{clip-path:url(#SVGID_4_);} .st5{fill:#E818BC;} .st6{opacity:0.8;fill:#E79020;} .st7{opacity:0.9;fill:#6B44A5;} .st8{opacity:0.8;fill:#129BE4;} .st9{fill:none;stroke:#000000;stroke-width:0.6;stroke-miterlimit:10;} .st10{fill:#E79020;} </style> <g id="homePage"> </g> <g id="Layer_2"> <rect x="0" class="st0" width="3840" height="2160"></rect> <g> <defs> <rect id="SVGID_1_" width="3840" height="2600"></rect> </defs> <clipPath id="SVGID_2_"> <use xlink:href="#SVGID_1_" style="overflow:visible;"></use> </clipPath> <g class="st1"> <path class="st2" d="M-498,2559c51.6,0,51.6,20,103.1,20c51.6,0,51.6-20,103.1-20c51.6,0,51.6,20,103.1,20 c51.6,0,51.6-20,103.1-20c51.6,0,51.6,20,103.1,20c51.6,0,51.6-20,103.1-20c51.6,0,51.6,20,103.1,20c51.6,0,51.6-20,103.1-20 c51.6,0,51.6,20,103.1,20c51.6,0,51.6-20,103.1-20c51.6,0,51.6,20,103.1,20c51.6,0,51.6-20,103.1-20c51.6,0,51.6,20,103.1,20 c51.6,0,51.6-20,103.1-20c51.6,0,51.6,20,103.1,20c51.6,0,51.6-20,103.1-20c51.6,0,51.6,20,103.1,20c51.6,0,51.6-20,103.1-20 c51.6,0,51.6,20,103.1,20c51.6,0,51.6-20,103.1-20c51.6,0,51.6,20,103.1,20c51.6,0,51.6-20,103.1-20c51.6,0,51.6,20,103.1,20 s51.6-20,103.1-20c51.6,0,51.6,20,103.1,20c51.6,0,51.6-20,103.1-20c51.6,0,51.6,20,103.1,20c51.6,0,51.6-20,103.1-20 c51.6,0,51.6,20,103.1,20c51.6,0,51.6-20,103.1-20s51.6,20,103.1,20c51.6,0,51.6-20,103.1-20c51.6,0,51.6,20,103.1,20 c51.6,0,51.6-20,103.1-20c51.6,0,51.6,20,103.1,20c51.6,0,51.6-20,103.1-20c51.6,0,51.6,20,103.1,20c51.6,0,51.6-20,103.1-20 c51.6,0,51.6,20,103.1,20c51.6,0,51.6-20,103.1-20c51.6,0,51.6,20,103.1,20"></path> </g> <g class="st1"> <path class="st2" d="M-490,2509c51.6,0,51.6,20,103.1,20c51.6,0,51.6-20,103.1-20c51.6,0,51.6,20,103.1,20 c51.6,0,51.6-20,103.1-20c51.6,0,51.6,20,103.1,20c51.6,0,51.6-20,103.1-20c51.6,0,51.6,20,103.1,20c51.6,0,51.6-20,103.1-20 c51.6,0,51.6,20,103.1,20c51.6,0,51.6-20,103.1-20c51.6,0,51.6,20,103.1,20c51.6,0,51.6-20,103.1-20c51.6,0,51.6,20,103.1,20 c51.6,0,51.6-20,103.1-20c51.6,0,51.6,20,103.1,20c51.6,0,51.6-20,103.1-20c51.6,0,51.6,20,103.1,20c51.6,0,51.6-20,103.1-20 c51.6,0,51.6,20,103.1,20c51.6,0,51.6-20,103.1-20c51.6,0,51.6,20,103.1,20c51.6,0,51.6-20,103.1-20c51.6,0,51.6,20,103.1,20 s51.6-20,103.1-20c51.6,0,51.6,20,103.1,20c51.6,0,51.6-20,103.1-20c51.6,0,51.6,20,103.1,20c51.6,0,51.6-20,103.1-20 c51.6,0,51.6,20,103.1,20c51.6,0,51.6-20,103.1-20s51.6,20,103.1,20c51.6,0,51.6-20,103.1-20c51.6,0,51.6,20,103.1,20 c51.6,0,51.6-20,103.1-20c51.6,0,51.6,20,103.1,20c51.6,0,51.6-20,103.1-20c51.6,0,51.6,20,103.1,20c51.6,0,51.6-20,103.1-20 c51.6,0,51.6,20,103.1,20c51.6,0,51.6-20,103.1-20c51.6,0,51.6,20,103.1,20"></path> </g> <g class="st1"> <path class="st2" d="M-482,2459c51.6,0,51.6,20,103.1,20c51.6,0,51.6-20,103.1-20c51.6,0,51.6,20,103.1,20 c51.6,0,51.6-20,103.1-20c51.6,0,51.6,20,103.1,20c51.6,0,51.6-20,103.1-20c51.6,0,51.6,20,103.1,20c51.6,0,51.6-20,103.1-20 c51.6,0,51.6,20,103.1,20c51.6,0,51.6-20,103.1-20c51.6,0,51.6,20,103.1,20c51.6,0,51.6-20,103.1-20c51.6,0,51.6,20,103.1,20 c51.6,0,51.6-20,103.1-20c51.6,0,51.6,20,103.1,20c51.6,0,51.6-20,103.1-20c51.6,0,51.6,20,103.1,20c51.6,0,51.6-20,103.1-20 c51.6,0,51.6,20,103.1,20c51.6,0,51.6-20,103.1-20c51.6,0,51.6,20,103.1,20c51.6,0,51.6-20,103.1-20c51.6,0,51.6,20,103.1,20 s51.6-20,103.1-20c51.6,0,51.6,20,103.1,20c51.6,0,51.6-20,103.1-20c51.6,0,51.6,20,103.1,20c51.6,0,51.6-20,103.1-20 c51.6,0,51.6,20,103.1,20c51.6,0,51.6-20,103.1-20s51.6,20,103.1,20c51.6,0,51.6-20,103.1-20c51.6,0,51.6,20,103.1,20 c51.6,0,51.6-20,103.1-20c51.6,0,51.6,20,103.1,20c51.6,0,51.6-20,103.1-20c51.6,0,51.6,20,103.1,20c51.6,0,51.6-20,103.1-20 c51.6,0,51.6,20,103.1,20c51.6,0,51.6-20,103.1-20c51.6,0,51.6,20,103.1,20"></path> </g> <g class="st1"> <path class="st2" d="M-474,2409c51.6,0,51.6,20,103.1,20c51.6,0,51.6-20,103.1-20c51.6,0,51.6,20,103.1,20 c51.6,0,51.6-20,103.1-20c51.6,0,51.6,20,103.1,20c51.6,0,51.6-20,103.1-20c51.6,0,51.6,20,103.1,20c51.6,0,51.6-20,103.1-20 c51.6,0,51.6,20,103.1,20c51.6,0,51.6-20,103.1-20c51.6,0,51.6,20,103.1,20c51.6,0,51.6-20,103.1-20c51.6,0,51.6,20,103.1,20 c51.6,0,51.6-20,103.1-20c51.6,0,51.6,20,103.1,20c51.6,0,51.6-20,103.1-20c51.6,0,51.6,20,103.1,20c51.6,0,51.6-20,103.1-20 c51.6,0,51.6,20,103.1,20c51.6,0,51.6-20,103.1-20c51.6,0,51.6,20,103.1,20c51.6,0,51.6-20,103.1-20c51.6,0,51.6,20,103.1,20 s51.6-20,103.1-20c51.6,0,51.6,20,103.1,20c51.6,0,51.6-20,103.1-20c51.6,0,51.6,20,103.1,20c51.6,0,51.6-20,103.1-20 c51.6,0,51.6,20,103.1,20c51.6,0,51.6-20,103.1-20s51.6,20,103.1,20c51.6,0,51.6-20,103.1-20c51.6,0,51.6,20,103.1,20 c51.6,0,51.6-20,103.1-20c51.6,0,51.6,20,103.1,20c51.6,0,51.6-20,103.1-20c51.6,0,51.6,20,103.1,20c51.6,0,51.6-20,103.1-20 c51.6,0,51.6,20,103.1,20c51.6,0,51.6-20,103.1-20c51.6,0,51.6,20,103.1,20"></path> </g> <g class="st1"> <path class="st2" d="M-466,2359c51.6,0,51.6,20,103.1,20c51.6,0,51.6-20,103.1-20c51.6,0,51.6,20,103.1,20 c51.6,0,51.6-20,103.1-20c51.6,0,51.6,20,103.1,20c51.6,0,51.6-20,103.1-20c51.6,0,51.6,20,103.1,20c51.6,0,51.6-20,103.1-20 c51.6,0,51.6,20,103.1,20c51.6,0,51.6-20,103.1-20c51.6,0,51.6,20,103.1,20c51.6,0,51.6-20,103.1-20c51.6,0,51.6,20,103.1,20 c51.6,0,51.6-20,103.1-20c51.6,0,51.6,20,103.1,20c51.6,0,51.6-20,103.1-20c51.6,0,51.6,20,103.1,20c51.6,0,51.6-20,103.1-20 c51.6,0,51.6,20,103.1,20c51.6,0,51.6-20,103.1-20c51.6,0,51.6,20,103.1,20c51.6,0,51.6-20,103.1-20c51.6,0,51.6,20,103.1,20 s51.6-20,103.1-20c51.6,0,51.6,20,103.1,20c51.6,0,51.6-20,103.1-20c51.6,0,51.6,20,103.1,20c51.6,0,51.6-20,103.1-20 c51.6,0,51.6,20,103.1,20c51.6,0,51.6-20,103.1-20s51.6,20,103.1,20c51.6,0,51.6-20,103.1-20c51.6,0,51.6,20,103.1,20 c51.6,0,51.6-20,103.1-20c51.6,0,51.6,20,103.1,20c51.6,0,51.6-20,103.1-20c51.6,0,51.6,20,103.1,20c51.6,0,51.6-20,103.1-20 c51.6,0,51.6,20,103.1,20c51.6,0,51.6-20,103.1-20c51.6,0,51.6,20,103.1,20"></path> </g> <g class="st1"> <path class="st2" d="M-458,2309c51.6,0,51.6,20,103.1,20c51.6,0,51.6-20,103.1-20c51.6,0,51.6,20,103.1,20 c51.6,0,51.6-20,103.1-20c51.6,0,51.6,20,103.1,20c51.6,0,51.6-20,103.1-20c51.6,0,51.6,20,103.1,20c51.6,0,51.6-20,103.1-20 c51.6,0,51.6,20,103.1,20c51.6,0,51.6-20,103.1-20c51.6,0,51.6,20,103.1,20c51.6,0,51.6-20,103.1-20c51.6,0,51.6,20,103.1,20 c51.6,0,51.6-20,103.1-20c51.6,0,51.6,20,103.1,20c51.6,0,51.6-20,103.1-20c51.6,0,51.6,20,103.1,20c51.6,0,51.6-20,103.1-20 c51.6,0,51.6,20,103.1,20c51.6,0,51.6-20,103.1-20c51.6,0,51.6,20,103.1,20c51.6,0,51.6-20,103.1-20c51.6,0,51.6,20,103.1,20 s51.6-20,103.1-20c51.6,0,51.6,20,103.1,20c51.6,0,51.6-20,103.1-20c51.6,0,51.6,20,103.1,20c51.6,0,51.6-20,103.1-20 c51.6,0,51.6,20,103.1,20c51.6,0,51.6-20,103.1-20s51.6,20,103.1,20c51.6,0,51.6-20,103.1-20c51.6,0,51.6,20,103.1,20 c51.6,0,51.6-20,103.1-20c51.6,0,51.6,20,103.1,20c51.6,0,51.6-20,103.1-20c51.6,0,51.6,20,103.1,20c51.6,0,51.6-20,103.1-20 c51.6,0,51.6,20,103.1,20c51.6,0,51.6-20,103.1-20c51.6,0,51.6,20,103.1,20"></path> </g> <g class="st1"> <path class="st2" d="M-450,2259c51.6,0,51.6,20,103.1,20c51.6,0,51.6-20,103.1-20c51.6,0,51.6,20,103.1,20 c51.6,0,51.6-20,103.1-20c51.6,0,51.6,20,103.1,20c51.6,0,51.6-20,103.1-20c51.6,0,51.6,20,103.1,20c51.6,0,51.6-20,103.1-20 c51.6,0,51.6,20,103.1,20c51.6,0,51.6-20,103.1-20c51.6,0,51.6,20,103.1,20c51.6,0,51.6-20,103.1-20c51.6,0,51.6,20,103.1,20 c51.6,0,51.6-20,103.1-20c51.6,0,51.6,20,103.1,20c51.6,0,51.6-20,103.1-20c51.6,0,51.6,20,103.1,20c51.6,0,51.6-20,103.1-20 c51.6,0,51.6,20,103.1,20c51.6,0,51.6-20,103.1-20c51.6,0,51.6,20,103.1,20c51.6,0,51.6-20,103.1-20c51.6,0,51.6,20,103.1,20 s51.6-20,103.1-20c51.6,0,51.6,20,103.1,20c51.6,0,51.6-20,103.1-20c51.6,0,51.6,20,103.1,20c51.6,0,51.6-20,103.1-20 c51.6,0,51.6,20,103.1,20c51.6,0,51.6-20,103.1-20s51.6,20,103.1,20c51.6,0,51.6-20,103.1-20c51.6,0,51.6,20,103.1,20 c51.6,0,51.6-20,103.1-20c51.6,0,51.6,20,103.1,20c51.6,0,51.6-20,103.1-20c51.6,0,51.6,20,103.1,20c51.6,0,51.6-20,103.1-20 c51.6,0,51.6,20,103.1,20c51.6,0,51.6-20,103.1-20c51.6,0,51.6,20,103.1,20"></path> </g> <g class="st1"> <path class="st2" d="M-442,2209c51.6,0,51.6,20,103.1,20c51.6,0,51.6-20,103.1-20c51.6,0,51.6,20,103.1,20 c51.6,0,51.6-20,103.1-20c51.6,0,51.6,20,103.1,20c51.6,0,51.6-20,103.1-20c51.6,0,51.6,20,103.1,20c51.6,0,51.6-20,103.1-20 c51.6,0,51.6,20,103.1,20c51.6,0,51.6-20,103.1-20c51.6,0,51.6,20,103.1,20c51.6,0,51.6-20,103.1-20c51.6,0,51.6,20,103.1,20 c51.6,0,51.6-20,103.1-20c51.6,0,51.6,20,103.1,20c51.6,0,51.6-20,103.1-20c51.6,0,51.6,20,103.1,20c51.6,0,51.6-20,103.1-20 c51.6,0,51.6,20,103.1,20c51.6,0,51.6-20,103.1-20c51.6,0,51.6,20,103.1,20c51.6,0,51.6-20,103.1-20c51.6,0,51.6,20,103.1,20 s51.6-20,103.1-20c51.6,0,51.6,20,103.1,20c51.6,0,51.6-20,103.1-20c51.6,0,51.6,20,103.1,20c51.6,0,51.6-20,103.1-20 c51.6,0,51.6,20,103.1,20c51.6,0,51.6-20,103.1-20s51.6,20,103.1,20c51.6,0,51.6-20,103.1-20c51.6,0,51.6,20,103.1,20 c51.6,0,51.6-20,103.1-20c51.6,0,51.6,20,103.1,20c51.6,0,51.6-20,103.1-20c51.6,0,51.6,20,103.1,20c51.6,0,51.6-20,103.1-20 c51.6,0,51.6,20,103.1,20c51.6,0,51.6-20,103.1-20c51.6,0,51.6,20,103.1,20"></path> </g> <g class="st1"> <path class="st2" d="M-434,2159c51.6,0,51.6,20,103.1,20c51.6,0,51.6-20,103.1-20c51.6,0,51.6,20,103.1,20s51.6-20,103.1-20 c51.6,0,51.6,20,103.1,20c51.6,0,51.6-20,103.1-20c51.6,0,51.6,20,103.1,20c51.6,0,51.6-20,103.1-20c51.6,0,51.6,20,103.1,20 c51.6,0,51.6-20,103.1-20c51.6,0,51.6,20,103.1,20c51.6,0,51.6-20,103.1-20c51.6,0,51.6,20,103.1,20c51.6,0,51.6-20,103.1-20 c51.6,0,51.6,20,103.1,20c51.6,0,51.6-20,103.1-20c51.6,0,51.6,20,103.1,20c51.6,0,51.6-20,103.1-20c51.6,0,51.6,20,103.1,20 c51.6,0,51.6-20,103.1-20c51.6,0,51.6,20,103.1,20c51.6,0,51.6-20,103.1-20c51.6,0,51.6,20,103.1,20s51.6-20,103.1-20 c51.6,0,51.6,20,103.1,20c51.6,0,51.6-20,103.1-20c51.6,0,51.6,20,103.1,20c51.6,0,51.6-20,103.1-20c51.6,0,51.6,20,103.1,20 c51.6,0,51.6-20,103.1-20s51.6,20,103.1,20c51.6,0,51.6-20,103.1-20c51.6,0,51.6,20,103.1,20c51.6,0,51.6-20,103.1-20 c51.6,0,51.6,20,103.1,20c51.6,0,51.6-20,103.1-20c51.6,0,51.6,20,103.1,20c51.6,0,51.6-20,103.1-20c51.6,0,51.6,20,103.1,20 c51.6,0,51.6-20,103.1-20c51.6,0,51.6,20,103.1,20"></path> </g> <g class="st1"> <path class="st2" d="M-426,2109c51.6,0,51.6,20,103.1,20c51.6,0,51.6-20,103.1-20c51.6,0,51.6,20,103.1,20s51.6-20,103.1-20 c51.6,0,51.6,20,103.1,20c51.6,0,51.6-20,103.1-20c51.6,0,51.6,20,103.1,20c51.6,0,51.6-20,103.1-20c51.6,0,51.6,20,103.1,20 c51.6,0,51.6-20,103.1-20c51.6,0,51.6,20,103.1,20c51.6,0,51.6-20,103.1-20c51.6,0,51.6,20,103.1,20c51.6,0,51.6-20,103.1-20 c51.6,0,51.6,20,103.1,20c51.6,0,51.6-20,103.1-20c51.6,0,51.6,20,103.1,20c51.6,0,51.6-20,103.1-20c51.6,0,51.6,20,103.1,20 c51.6,0,51.6-20,103.1-20c51.6,0,51.6,20,103.1,20c51.6,0,51.6-20,103.1-20c51.6,0,51.6,20,103.1,20s51.6-20,103.1-20 c51.6,0,51.6,20,103.1,20c51.6,0,51.6-20,103.1-20c51.6,0,51.6,20,103.1,20c51.6,0,51.6-20,103.1-20c51.6,0,51.6,20,103.1,20 c51.6,0,51.6-20,103.1-20s51.6,20,103.1,20c51.6,0,51.6-20,103.1-20c51.6,0,51.6,20,103.1,20c51.6,0,51.6-20,103.1-20 c51.6,0,51.6,20,103.1,20c51.6,0,51.6-20,103.1-20c51.6,0,51.6,20,103.1,20c51.6,0,51.6-20,103.1-20c51.6,0,51.6,20,103.1,20 c51.6,0,51.6-20,103.1-20c51.6,0,51.6,20,103.1,20"></path> </g> <g class="st1"> <path class="st2" d="M-418,2059c51.6,0,51.6,20,103.1,20c51.6,0,51.6-20,103.1-20c51.6,0,51.6,20,103.1,20s51.6-20,103.1-20 c51.6,0,51.6,20,103.1,20c51.6,0,51.6-20,103.1-20c51.6,0,51.6,20,103.1,20c51.6,0,51.6-20,103.1-20c51.6,0,51.6,20,103.1,20 c51.6,0,51.6-20,103.1-20c51.6,0,51.6,20,103.1,20c51.6,0,51.6-20,103.1-20c51.6,0,51.6,20,103.1,20c51.6,0,51.6-20,103.1-20 c51.6,0,51.6,20,103.1,20c51.6,0,51.6-20,103.1-20c51.6,0,51.6,20,103.1,20c51.6,0,51.6-20,103.1-20c51.6,0,51.6,20,103.1,20 c51.6,0,51.6-20,103.1-20c51.6,0,51.6,20,103.1,20c51.6,0,51.6-20,103.1-20c51.6,0,51.6,20,103.1,20s51.6-20,103.1-20 c51.6,0,51.6,20,103.1,20c51.6,0,51.6-20,103.1-20c51.6,0,51.6,20,103.1,20c51.6,0,51.6-20,103.1-20c51.6,0,51.6,20,103.1,20 c51.6,0,51.6-20,103.1-20s51.6,20,103.1,20c51.6,0,51.6-20,103.1-20c51.6,0,51.6,20,103.1,20c51.6,0,51.6-20,103.1-20 c51.6,0,51.6,20,103.1,20c51.6,0,51.6-20,103.1-20c51.6,0,51.6,20,103.1,20c51.6,0,51.6-20,103.1-20c51.6,0,51.6,20,103.1,20 c51.6,0,51.6-20,103.1-20c51.6,0,51.6,20,103.1,20"></path> </g> <g class="st1"> <path class="st2" d="M-410,2009c51.6,0,51.6,20,103.1,20s51.6-20,103.1-20c51.6,0,51.6,20,103.1,20s51.6-20,103.1-20 c51.6,0,51.6,20,103.1,20c51.6,0,51.6-20,103.1-20c51.6,0,51.6,20,103.1,20c51.6,0,51.6-20,103.1-20c51.6,0,51.6,20,103.1,20 c51.6,0,51.6-20,103.1-20c51.6,0,51.6,20,103.1,20c51.6,0,51.6-20,103.1-20c51.6,0,51.6,20,103.1,20c51.6,0,51.6-20,103.1-20 c51.6,0,51.6,20,103.1,20c51.6,0,51.6-20,103.1-20c51.6,0,51.6,20,103.1,20c51.6,0,51.6-20,103.1-20c51.6,0,51.6,20,103.1,20 c51.6,0,51.6-20,103.1-20c51.6,0,51.6,20,103.1,20c51.6,0,51.6-20,103.1-20c51.6,0,51.6,20,103.1,20s51.6-20,103.1-20 c51.6,0,51.6,20,103.1,20c51.6,0,51.6-20,103.1-20c51.6,0,51.6,20,103.1,20c51.6,0,51.6-20,103.1-20c51.6,0,51.6,20,103.1,20 c51.6,0,51.6-20,103.1-20s51.6,20,103.1,20c51.6,0,51.6-20,103.1-20c51.6,0,51.6,20,103.1,20c51.6,0,51.6-20,103.1-20 c51.6,0,51.6,20,103.1,20c51.6,0,51.6-20,103.1-20c51.6,0,51.6,20,103.1,20c51.6,0,51.6-20,103.1-20c51.6,0,51.6,20,103.1,20 c51.6,0,51.6-20,103.1-20c51.6,0,51.6,20,103.1,20"></path> </g> <g class="st1"> <path class="st2" d="M-402,1959c51.6,0,51.6,20,103.1,20s51.6-20,103.1-20c51.6,0,51.6,20,103.1,20s51.6-20,103.1-20 c51.6,0,51.6,20,103.1,20c51.6,0,51.6-20,103.1-20c51.6,0,51.6,20,103.1,20c51.6,0,51.6-20,103.1-20c51.6,0,51.6,20,103.1,20 c51.6,0,51.6-20,103.1-20c51.6,0,51.6,20,103.1,20c51.6,0,51.6-20,103.1-20c51.6,0,51.6,20,103.1,20c51.6,0,51.6-20,103.1-20 c51.6,0,51.6,20,103.1,20c51.6,0,51.6-20,103.1-20c51.6,0,51.6,20,103.1,20c51.6,0,51.6-20,103.1-20c51.6,0,51.6,20,103.1,20 c51.6,0,51.6-20,103.1-20c51.6,0,51.6,20,103.1,20c51.6,0,51.6-20,103.1-20c51.6,0,51.6,20,103.1,20s51.6-20,103.1-20 c51.6,0,51.6,20,103.1,20c51.6,0,51.6-20,103.1-20c51.6,0,51.6,20,103.1,20c51.6,0,51.6-20,103.1-20c51.6,0,51.6,20,103.1,20 c51.6,0,51.6-20,103.1-20s51.6,20,103.1,20c51.6,0,51.6-20,103.1-20c51.6,0,51.6,20,103.1,20c51.6,0,51.6-20,103.1-20 c51.6,0,51.6,20,103.1,20c51.6,0,51.6-20,103.1-20c51.6,0,51.6,20,103.1,20c51.6,0,51.6-20,103.1-20c51.6,0,51.6,20,103.1,20 c51.6,0,51.6-20,103.1-20c51.6,0,51.6,20,103.1,20"></path> </g> <g class="st1"> <path class="st2" d="M-394,1909c51.6,0,51.6,20,103.1,20s51.6-20,103.1-20c51.6,0,51.6,20,103.1,20s51.6-20,103.1-20 c51.6,0,51.6,20,103.1,20c51.6,0,51.6-20,103.1-20c51.6,0,51.6,20,103.1,20c51.6,0,51.6-20,103.1-20c51.6,0,51.6,20,103.1,20 c51.6,0,51.6-20,103.1-20c51.6,0,51.6,20,103.1,20c51.6,0,51.6-20,103.1-20c51.6,0,51.6,20,103.1,20c51.6,0,51.6-20,103.1-20 c51.6,0,51.6,20,103.1,20c51.6,0,51.6-20,103.1-20c51.6,0,51.6,20,103.1,20c51.6,0,51.6-20,103.1-20c51.6,0,51.6,20,103.1,20 c51.6,0,51.6-20,103.1-20c51.6,0,51.6,20,103.1,20c51.6,0,51.6-20,103.1-20c51.6,0,51.6,20,103.1,20s51.6-20,103.1-20 c51.6,0,51.6,20,103.1,20c51.6,0,51.6-20,103.1-20c51.6,0,51.6,20,103.1,20c51.6,0,51.6-20,103.1-20c51.6,0,51.6,20,103.1,20 c51.6,0,51.6-20,103.1-20s51.6,20,103.1,20c51.6,0,51.6-20,103.1-20c51.6,0,51.6,20,103.1,20c51.6,0,51.6-20,103.1-20 c51.6,0,51.6,20,103.1,20c51.6,0,51.6-20,103.1-20c51.6,0,51.6,20,103.1,20c51.6,0,51.6-20,103.1-20c51.6,0,51.6,20,103.1,20 c51.6,0,51.6-20,103.1-20c51.6,0,51.6,20,103.1,20"></path> </g> <g class="st1"> <path class="st2" d="M-386,1859c51.6,0,51.6,20,103.1,20s51.6-20,103.1-20c51.6,0,51.6,20,103.1,20s51.6-20,103.1-20 c51.6,0,51.6,20,103.1,20c51.6,0,51.6-20,103.1-20c51.6,0,51.6,20,103.1,20c51.6,0,51.6-20,103.1-20c51.6,0,51.6,20,103.1,20 c51.6,0,51.6-20,103.1-20c51.6,0,51.6,20,103.1,20c51.6,0,51.6-20,103.1-20c51.6,0,51.6,20,103.1,20c51.6,0,51.6-20,103.1-20 c51.6,0,51.6,20,103.1,20c51.6,0,51.6-20,103.1-20c51.6,0,51.6,20,103.1,20c51.6,0,51.6-20,103.1-20c51.6,0,51.6,20,103.1,20 c51.6,0,51.6-20,103.1-20c51.6,0,51.6,20,103.1,20c51.6,0,51.6-20,103.1-20c51.6,0,51.6,20,103.1,20s51.6-20,103.1-20 c51.6,0,51.6,20,103.1,20c51.6,0,51.6-20,103.1-20c51.6,0,51.6,20,103.1,20c51.6,0,51.6-20,103.1-20c51.6,0,51.6,20,103.1,20 c51.6,0,51.6-20,103.1-20s51.6,20,103.1,20c51.6,0,51.6-20,103.1-20c51.6,0,51.6,20,103.1,20c51.6,0,51.6-20,103.1-20 c51.6,0,51.6,20,103.1,20c51.6,0,51.6-20,103.1-20c51.6,0,51.6,20,103.1,20c51.6,0,51.6-20,103.1-20c51.6,0,51.6,20,103.1,20 c51.6,0,51.6-20,103.1-20c51.6,0,51.6,20,103.1,20"></path> </g> <g class="st1"> <path class="st2" d="M-378,1809c51.6,0,51.6,20,103.1,20s51.6-20,103.1-20c51.6,0,51.6,20,103.1,20s51.6-20,103.1-20 c51.6,0,51.6,20,103.1,20c51.6,0,51.6-20,103.1-20c51.6,0,51.6,20,103.1,20c51.6,0,51.6-20,103.1-20c51.6,0,51.6,20,103.1,20 c51.6,0,51.6-20,103.1-20c51.6,0,51.6,20,103.1,20c51.6,0,51.6-20,103.1-20c51.6,0,51.6,20,103.1,20c51.6,0,51.6-20,103.1-20 c51.6,0,51.6,20,103.1,20c51.6,0,51.6-20,103.1-20c51.6,0,51.6,20,103.1,20c51.6,0,51.6-20,103.1-20c51.6,0,51.6,20,103.1,20 c51.6,0,51.6-20,103.1-20c51.6,0,51.6,20,103.1,20c51.6,0,51.6-20,103.1-20c51.6,0,51.6,20,103.1,20s51.6-20,103.1-20 c51.6,0,51.6,20,103.1,20c51.6,0,51.6-20,103.1-20c51.6,0,51.6,20,103.1,20c51.6,0,51.6-20,103.1-20c51.6,0,51.6,20,103.1,20 c51.6,0,51.6-20,103.1-20s51.6,20,103.1,20c51.6,0,51.6-20,103.1-20c51.6,0,51.6,20,103.1,20c51.6,0,51.6-20,103.1-20 c51.6,0,51.6,20,103.1,20c51.6,0,51.6-20,103.1-20c51.6,0,51.6,20,103.1,20c51.6,0,51.6-20,103.1-20c51.6,0,51.6,20,103.1,20 c51.6,0,51.6-20,103.1-20c51.6,0,51.6,20,103.1,20"></path> </g> <g class="st1"> <path class="st2" d="M-370,1759c51.6,0,51.6,20,103.1,20s51.6-20,103.1-20c51.6,0,51.6,20,103.1,20c51.6,0,51.6-20,103.1-20 c51.6,0,51.6,20,103.1,20c51.6,0,51.6-20,103.1-20c51.6,0,51.6,20,103.1,20c51.6,0,51.6-20,103.1-20c51.6,0,51.6,20,103.1,20 c51.6,0,51.6-20,103.1-20c51.6,0,51.6,20,103.1,20c51.6,0,51.6-20,103.1-20c51.6,0,51.6,20,103.1,20c51.6,0,51.6-20,103.1-20 c51.6,0,51.6,20,103.1,20c51.6,0,51.6-20,103.1-20c51.6,0,51.6,20,103.1,20c51.6,0,51.6-20,103.1-20c51.6,0,51.6,20,103.1,20 c51.6,0,51.6-20,103.1-20c51.6,0,51.6,20,103.1,20c51.6,0,51.6-20,103.1-20c51.6,0,51.6,20,103.1,20s51.6-20,103.1-20 c51.6,0,51.6,20,103.1,20c51.6,0,51.6-20,103.1-20c51.6,0,51.6,20,103.1,20c51.6,0,51.6-20,103.1-20c51.6,0,51.6,20,103.1,20 c51.6,0,51.6-20,103.1-20s51.6,20,103.1,20c51.6,0,51.6-20,103.1-20c51.6,0,51.6,20,103.1,20c51.6,0,51.6-20,103.1-20 c51.6,0,51.6,20,103.1,20c51.6,0,51.6-20,103.1-20c51.6,0,51.6,20,103.1,20c51.6,0,51.6-20,103.1-20c51.6,0,51.6,20,103.1,20 c51.6,0,51.6-20,103.1-20c51.6,0,51.6,20,103.1,20"></path> </g> <g class="st1"> <path class="st2" d="M-362,1709c51.6,0,51.6,20,103.1,20s51.6-20,103.1-20c51.6,0,51.6,20,103.1,20c51.6,0,51.6-20,103.1-20 c51.6,0,51.6,20,103.1,20c51.6,0,51.6-20,103.1-20c51.6,0,51.6,20,103.1,20c51.6,0,51.6-20,103.1-20c51.6,0,51.6,20,103.1,20 c51.6,0,51.6-20,103.1-20c51.6,0,51.6,20,103.1,20c51.6,0,51.6-20,103.1-20c51.6,0,51.6,20,103.1,20c51.6,0,51.6-20,103.1-20 c51.6,0,51.6,20,103.1,20c51.6,0,51.6-20,103.1-20c51.6,0,51.6,20,103.1,20c51.6,0,51.6-20,103.1-20c51.6,0,51.6,20,103.1,20 c51.6,0,51.6-20,103.1-20c51.6,0,51.6,20,103.1,20c51.6,0,51.6-20,103.1-20c51.6,0,51.6,20,103.1,20s51.6-20,103.1-20 c51.6,0,51.6,20,103.1,20c51.6,0,51.6-20,103.1-20c51.6,0,51.6,20,103.1,20c51.6,0,51.6-20,103.1-20c51.6,0,51.6,20,103.1,20 c51.6,0,51.6-20,103.1-20s51.6,20,103.1,20c51.6,0,51.6-20,103.1-20c51.6,0,51.6,20,103.1,20c51.6,0,51.6-20,103.1-20 c51.6,0,51.6,20,103.1,20c51.6,0,51.6-20,103.1-20c51.6,0,51.6,20,103.1,20c51.6,0,51.6-20,103.1-20c51.6,0,51.6,20,103.1,20 c51.6,0,51.6-20,103.1-20c51.6,0,51.6,20,103.1,20"></path> </g> <g class="st1"> <path class="st2" d="M-354,1659c51.6,0,51.6,20,103.1,20s51.6-20,103.1-20c51.6,0,51.6,20,103.1,20c51.6,0,51.6-20,103.1-20 c51.6,0,51.6,20,103.1,20c51.6,0,51.6-20,103.1-20c51.6,0,51.6,20,103.1,20c51.6,0,51.6-20,103.1-20c51.6,0,51.6,20,103.1,20 c51.6,0,51.6-20,103.1-20c51.6,0,51.6,20,103.1,20c51.6,0,51.6-20,103.1-20c51.6,0,51.6,20,103.1,20c51.6,0,51.6-20,103.1-20 c51.6,0,51.6,20,103.1,20c51.6,0,51.6-20,103.1-20c51.6,0,51.6,20,103.1,20c51.6,0,51.6-20,103.1-20c51.6,0,51.6,20,103.1,20 c51.6,0,51.6-20,103.1-20c51.6,0,51.6,20,103.1,20c51.6,0,51.6-20,103.1-20c51.6,0,51.6,20,103.1,20s51.6-20,103.1-20 c51.6,0,51.6,20,103.1,20c51.6,0,51.6-20,103.1-20c51.6,0,51.6,20,103.1,20c51.6,0,51.6-20,103.1-20c51.6,0,51.6,20,103.1,20 c51.6,0,51.6-20,103.1-20s51.6,20,103.1,20c51.6,0,51.6-20,103.1-20c51.6,0,51.6,20,103.1,20c51.6,0,51.6-20,103.1-20 c51.6,0,51.6,20,103.1,20c51.6,0,51.6-20,103.1-20c51.6,0,51.6,20,103.1,20c51.6,0,51.6-20,103.1-20c51.6,0,51.6,20,103.1,20 c51.6,0,51.6-20,103.1-20c51.6,0,51.6,20,103.1,20"></path> </g> <g class="st1"> <path class="st2" d="M-346,1609c51.6,0,51.6,20,103.1,20s51.6-20,103.1-20c51.6,0,51.6,20,103.1,20c51.6,0,51.6-20,103.1-20 c51.6,0,51.6,20,103.1,20c51.6,0,51.6-20,103.1-20c51.6,0,51.6,20,103.1,20c51.6,0,51.6-20,103.1-20c51.6,0,51.6,20,103.1,20 c51.6,0,51.6-20,103.1-20c51.6,0,51.6,20,103.1,20c51.6,0,51.6-20,103.1-20c51.6,0,51.6,20,103.1,20c51.6,0,51.6-20,103.1-20 c51.6,0,51.6,20,103.1,20c51.6,0,51.6-20,103.1-20c51.6,0,51.6,20,103.1,20c51.6,0,51.6-20,103.1-20c51.6,0,51.6,20,103.1,20 c51.6,0,51.6-20,103.1-20c51.6,0,51.6,20,103.1,20c51.6,0,51.6-20,103.1-20c51.6,0,51.6,20,103.1,20s51.6-20,103.1-20 c51.6,0,51.6,20,103.1,20c51.6,0,51.6-20,103.1-20c51.6,0,51.6,20,103.1,20c51.6,0,51.6-20,103.1-20c51.6,0,51.6,20,103.1,20 c51.6,0,51.6-20,103.1-20s51.6,20,103.1,20c51.6,0,51.6-20,103.1-20c51.6,0,51.6,20,103.1,20c51.6,0,51.6-20,103.1-20 c51.6,0,51.6,20,103.1,20c51.6,0,51.6-20,103.1-20c51.6,0,51.6,20,103.1,20c51.6,0,51.6-20,103.1-20c51.6,0,51.6,20,103.1,20 c51.6,0,51.6-20,103.1-20c51.6,0,51.6,20,103.1,20"></path> </g> <g class="st1"> <path class="st2" d="M-338,1559c51.6,0,51.6,20,103.1,20s51.6-20,103.1-20c51.6,0,51.6,20,103.1,20s51.6-20,103.1-20 c51.6,0,51.6,20,103.1,20c51.6,0,51.6-20,103.1-20c51.6,0,51.6,20,103.1,20c51.6,0,51.6-20,103.1-20c51.6,0,51.6,20,103.1,20 c51.6,0,51.6-20,103.1-20c51.6,0,51.6,20,103.1,20c51.6,0,51.6-20,103.1-20c51.6,0,51.6,20,103.1,20c51.6,0,51.6-20,103.1-20 c51.6,0,51.6,20,103.1,20c51.6,0,51.6-20,103.1-20c51.6,0,51.6,20,103.1,20c51.6,0,51.6-20,103.1-20c51.6,0,51.6,20,103.1,20 c51.6,0,51.6-20,103.1-20c51.6,0,51.6,20,103.1,20c51.6,0,51.6-20,103.1-20c51.6,0,51.6,20,103.1,20s51.6-20,103.1-20 c51.6,0,51.6,20,103.1,20c51.6,0,51.6-20,103.1-20c51.6,0,51.6,20,103.1,20c51.6,0,51.6-20,103.1-20c51.6,0,51.6,20,103.1,20 c51.6,0,51.6-20,103.1-20s51.6,20,103.1,20c51.6,0,51.6-20,103.1-20c51.6,0,51.6,20,103.1,20c51.6,0,51.6-20,103.1-20 c51.6,0,51.6,20,103.1,20c51.6,0,51.6-20,103.1-20c51.6,0,51.6,20,103.1,20c51.6,0,51.6-20,103.1-20c51.6,0,51.6,20,103.1,20 c51.6,0,51.6-20,103.1-20c51.6,0,51.6,20,103.1,20"></path> </g> <g class="st1"> <path class="st2" d="M-330,1509c51.6,0,51.6,20,103.1,20s51.6-20,103.1-20c51.6,0,51.6,20,103.1,20s51.6-20,103.1-20 c51.6,0,51.6,20,103.1,20c51.6,0,51.6-20,103.1-20c51.6,0,51.6,20,103.1,20c51.6,0,51.6-20,103.1-20c51.6,0,51.6,20,103.1,20 c51.6,0,51.6-20,103.1-20c51.6,0,51.6,20,103.1,20c51.6,0,51.6-20,103.1-20c51.6,0,51.6,20,103.1,20c51.6,0,51.6-20,103.1-20 c51.6,0,51.6,20,103.1,20c51.6,0,51.6-20,103.1-20c51.6,0,51.6,20,103.1,20c51.6,0,51.6-20,103.1-20c51.6,0,51.6,20,103.1,20 c51.6,0,51.6-20,103.1-20c51.6,0,51.6,20,103.1,20c51.6,0,51.6-20,103.1-20c51.6,0,51.6,20,103.1,20s51.6-20,103.1-20 c51.6,0,51.6,20,103.1,20c51.6,0,51.6-20,103.1-20c51.6,0,51.6,20,103.1,20c51.6,0,51.6-20,103.1-20c51.6,0,51.6,20,103.1,20 c51.6,0,51.6-20,103.1-20s51.6,20,103.1,20c51.6,0,51.6-20,103.1-20c51.6,0,51.6,20,103.1,20c51.6,0,51.6-20,103.1-20 c51.6,0,51.6,20,103.1,20c51.6,0,51.6-20,103.1-20c51.6,0,51.6,20,103.1,20c51.6,0,51.6-20,103.1-20c51.6,0,51.6,20,103.1,20 c51.6,0,51.6-20,103.1-20c51.6,0,51.6,20,103.1,20"></path> </g> <g class="st1"> <path class="st2" d="M-322,1459c51.6,0,51.6,20,103.1,20s51.6-20,103.1-20c51.6,0,51.6,20,103.1,20c51.6,0,51.6-20,103.1-20 c51.6,0,51.6,20,103.1,20c51.6,0,51.6-20,103.1-20c51.6,0,51.6,20,103.1,20c51.6,0,51.6-20,103.1-20c51.6,0,51.6,20,103.1,20 c51.6,0,51.6-20,103.1-20c51.6,0,51.6,20,103.1,20c51.6,0,51.6-20,103.1-20c51.6,0,51.6,20,103.1,20c51.6,0,51.6-20,103.1-20 c51.6,0,51.6,20,103.1,20c51.6,0,51.6-20,103.1-20c51.6,0,51.6,20,103.1,20c51.6,0,51.6-20,103.1-20c51.6,0,51.6,20,103.1,20 c51.6,0,51.6-20,103.1-20c51.6,0,51.6,20,103.1,20c51.6,0,51.6-20,103.1-20c51.6,0,51.6,20,103.1,20c51.6,0,51.6-20,103.1-20 c51.6,0,51.6,20,103.1,20c51.6,0,51.6-20,103.1-20c51.6,0,51.6,20,103.1,20c51.6,0,51.6-20,103.1-20c51.6,0,51.6,20,103.1,20 c51.6,0,51.6-20,103.1-20s51.6,20,103.1,20c51.6,0,51.6-20,103.1-20c51.6,0,51.6,20,103.1,20c51.6,0,51.6-20,103.1-20 c51.6,0,51.6,20,103.1,20c51.6,0,51.6-20,103.1-20c51.6,0,51.6,20,103.1,20c51.6,0,51.6-20,103.1-20c51.6,0,51.6,20,103.1,20 c51.6,0,51.6-20,103.1-20c51.6,0,51.6,20,103.1,20"></path> </g> <g class="st1"> <path class="st2" d="M-314,1409c51.6,0,51.6,20,103.1,20s51.6-20,103.1-20c51.6,0,51.6,20,103.1,20c51.6,0,51.6-20,103.1-20 c51.6,0,51.6,20,103.1,20c51.6,0,51.6-20,103.1-20c51.6,0,51.6,20,103.1,20c51.6,0,51.6-20,103.1-20c51.6,0,51.6,20,103.1,20 c51.6,0,51.6-20,103.1-20c51.6,0,51.6,20,103.1,20c51.6,0,51.6-20,103.1-20c51.6,0,51.6,20,103.1,20c51.6,0,51.6-20,103.1-20 c51.6,0,51.6,20,103.1,20c51.6,0,51.6-20,103.1-20c51.6,0,51.6,20,103.1,20c51.6,0,51.6-20,103.1-20c51.6,0,51.6,20,103.1,20 c51.6,0,51.6-20,103.1-20c51.6,0,51.6,20,103.1,20c51.6,0,51.6-20,103.1-20c51.6,0,51.6,20,103.1,20c51.6,0,51.6-20,103.1-20 c51.6,0,51.6,20,103.1,20c51.6,0,51.6-20,103.1-20c51.6,0,51.6,20,103.1,20c51.6,0,51.6-20,103.1-20c51.6,0,51.6,20,103.1,20 c51.6,0,51.6-20,103.1-20s51.6,20,103.1,20c51.6,0,51.6-20,103.1-20c51.6,0,51.6,20,103.1,20c51.6,0,51.6-20,103.1-20 c51.6,0,51.6,20,103.1,20c51.6,0,51.6-20,103.1-20c51.6,0,51.6,20,103.1,20c51.6,0,51.6-20,103.1-20c51.6,0,51.6,20,103.1,20 c51.6,0,51.6-20,103.1-20c51.6,0,51.6,20,103.1,20"></path> </g> <g class="st1"> <path class="st2" d="M-306,1359c51.6,0,51.6,20,103.1,20s51.6-20,103.1-20c51.6,0,51.6,20,103.1,20c51.6,0,51.6-20,103.1-20 c51.6,0,51.6,20,103.1,20c51.6,0,51.6-20,103.1-20c51.6,0,51.6,20,103.1,20c51.6,0,51.6-20,103.1-20c51.6,0,51.6,20,103.1,20 c51.6,0,51.6-20,103.1-20c51.6,0,51.6,20,103.1,20c51.6,0,51.6-20,103.1-20c51.6,0,51.6,20,103.1,20c51.6,0,51.6-20,103.1-20 c51.6,0,51.6,20,103.1,20c51.6,0,51.6-20,103.1-20c51.6,0,51.6,20,103.1,20c51.6,0,51.6-20,103.1-20c51.6,0,51.6,20,103.1,20 c51.6,0,51.6-20,103.1-20c51.6,0,51.6,20,103.1,20c51.6,0,51.6-20,103.1-20c51.6,0,51.6,20,103.1,20c51.6,0,51.6-20,103.1-20 c51.6,0,51.6,20,103.1,20c51.6,0,51.6-20,103.1-20c51.6,0,51.6,20,103.1,20c51.6,0,51.6-20,103.1-20c51.6,0,51.6,20,103.1,20 c51.6,0,51.6-20,103.1-20s51.6,20,103.1,20c51.6,0,51.6-20,103.1-20c51.6,0,51.6,20,103.1,20c51.6,0,51.6-20,103.1-20 c51.6,0,51.6,20,103.1,20c51.6,0,51.6-20,103.1-20c51.6,0,51.6,20,103.1,20c51.6,0,51.6-20,103.1-20c51.6,0,51.6,20,103.1,20 c51.6,0,51.6-20,103.1-20c51.6,0,51.6,20,103.1,20"></path> </g> <g class="st1"> <path class="st2" d="M-298,1309c51.6,0,51.6,20,103.1,20s51.6-20,103.1-20c51.6,0,51.6,20,103.1,20c51.6,0,51.6-20,103.1-20 c51.6,0,51.6,20,103.1,20c51.6,0,51.6-20,103.1-20c51.6,0,51.6,20,103.1,20c51.6,0,51.6-20,103.1-20c51.6,0,51.6,20,103.1,20 c51.6,0,51.6-20,103.1-20c51.6,0,51.6,20,103.1,20c51.6,0,51.6-20,103.1-20c51.6,0,51.6,20,103.1,20c51.6,0,51.6-20,103.1-20 c51.6,0,51.6,20,103.1,20c51.6,0,51.6-20,103.1-20c51.6,0,51.6,20,103.1,20c51.6,0,51.6-20,103.1-20c51.6,0,51.6,20,103.1,20 c51.6,0,51.6-20,103.1-20c51.6,0,51.6,20,103.1,20c51.6,0,51.6-20,103.1-20c51.6,0,51.6,20,103.1,20c51.6,0,51.6-20,103.1-20 c51.6,0,51.6,20,103.1,20c51.6,0,51.6-20,103.1-20c51.6,0,51.6,20,103.1,20c51.6,0,51.6-20,103.1-20c51.6,0,51.6,20,103.1,20 c51.6,0,51.6-20,103.1-20s51.6,20,103.1,20c51.6,0,51.6-20,103.1-20c51.6,0,51.6,20,103.1,20c51.6,0,51.6-20,103.1-20 c51.6,0,51.6,20,103.1,20c51.6,0,51.6-20,103.1-20c51.6,0,51.6,20,103.1,20c51.6,0,51.6-20,103.1-20c51.6,0,51.6,20,103.1,20 c51.6,0,51.6-20,103.1-20c51.6,0,51.6,20,103.1,20"></path> </g> <g class="st1"> <path class="st2" d="M-290,1259c51.6,0,51.6,20,103.1,20s51.6-20,103.1-20c51.6,0,51.6,20,103.1,20s51.6-20,103.1-20 c51.6,0,51.6,20,103.1,20c51.6,0,51.6-20,103.1-20c51.6,0,51.6,20,103.1,20c51.6,0,51.6-20,103.1-20c51.6,0,51.6,20,103.1,20 c51.6,0,51.6-20,103.1-20c51.6,0,51.6,20,103.1,20c51.6,0,51.6-20,103.1-20c51.6,0,51.6,20,103.1,20c51.6,0,51.6-20,103.1-20 c51.6,0,51.6,20,103.1,20c51.6,0,51.6-20,103.1-20c51.6,0,51.6,20,103.1,20c51.6,0,51.6-20,103.1-20c51.6,0,51.6,20,103.1,20 c51.6,0,51.6-20,103.1-20c51.6,0,51.6,20,103.1,20c51.6,0,51.6-20,103.1-20c51.6,0,51.6,20,103.1,20c51.6,0,51.6-20,103.1-20 c51.6,0,51.6,20,103.1,20c51.6,0,51.6-20,103.1-20c51.6,0,51.6,20,103.1,20c51.6,0,51.6-20,103.1-20c51.6,0,51.6,20,103.1,20 c51.6,0,51.6-20,103.1-20s51.6,20,103.1,20c51.6,0,51.6-20,103.1-20c51.6,0,51.6,20,103.1,20c51.6,0,51.6-20,103.1-20 c51.6,0,51.6,20,103.1,20c51.6,0,51.6-20,103.1-20c51.6,0,51.6,20,103.1,20c51.6,0,51.6-20,103.1-20c51.6,0,51.6,20,103.1,20 c51.6,0,51.6-20,103.1-20c51.6,0,51.6,20,103.1,20"></path> </g> <g class="st1"> <path class="st2" d="M-282,1209c51.6,0,51.6,20,103.1,20s51.6-20,103.1-20c51.6,0,51.6,20,103.1,20s51.6-20,103.1-20 c51.6,0,51.6,20,103.1,20c51.6,0,51.6-20,103.1-20c51.6,0,51.6,20,103.1,20c51.6,0,51.6-20,103.1-20c51.6,0,51.6,20,103.1,20 c51.6,0,51.6-20,103.1-20c51.6,0,51.6,20,103.1,20c51.6,0,51.6-20,103.1-20c51.6,0,51.6,20,103.1,20c51.6,0,51.6-20,103.1-20 c51.6,0,51.6,20,103.1,20c51.6,0,51.6-20,103.1-20c51.6,0,51.6,20,103.1,20c51.6,0,51.6-20,103.1-20c51.6,0,51.6,20,103.1,20 c51.6,0,51.6-20,103.1-20c51.6,0,51.6,20,103.1,20c51.6,0,51.6-20,103.1-20c51.6,0,51.6,20,103.1,20c51.6,0,51.6-20,103.1-20 c51.6,0,51.6,20,103.1,20c51.6,0,51.6-20,103.1-20c51.6,0,51.6,20,103.1,20c51.6,0,51.6-20,103.1-20c51.6,0,51.6,20,103.1,20 c51.6,0,51.6-20,103.1-20s51.6,20,103.1,20c51.6,0,51.6-20,103.1-20c51.6,0,51.6,20,103.1,20c51.6,0,51.6-20,103.1-20 c51.6,0,51.6,20,103.1,20c51.6,0,51.6-20,103.1-20c51.6,0,51.6,20,103.1,20c51.6,0,51.6-20,103.1-20c51.6,0,51.6,20,103.1,20 c51.6,0,51.6-20,103.1-20c51.6,0,51.6,20,103.1,20"></path> </g> <g class="st1"> <path class="st2" d="M-274,1159c51.6,0,51.6,20,103.1,20s51.6-20,103.1-20c51.6,0,51.6,20,103.1,20c51.6,0,51.6-20,103.1-20 c51.6,0,51.6,20,103.1,20c51.6,0,51.6-20,103.1-20c51.6,0,51.6,20,103.1,20c51.6,0,51.6-20,103.1-20c51.6,0,51.6,20,103.1,20 c51.6,0,51.6-20,103.1-20c51.6,0,51.6,20,103.1,20c51.6,0,51.6-20,103.1-20c51.6,0,51.6,20,103.1,20c51.6,0,51.6-20,103.1-20 c51.6,0,51.6,20,103.1,20c51.6,0,51.6-20,103.1-20c51.6,0,51.6,20,103.1,20c51.6,0,51.6-20,103.1-20c51.6,0,51.6,20,103.1,20 c51.6,0,51.6-20,103.1-20c51.6,0,51.6,20,103.1,20c51.6,0,51.6-20,103.1-20c51.6,0,51.6,20,103.1,20c51.6,0,51.6-20,103.1-20 c51.6,0,51.6,20,103.1,20c51.6,0,51.6-20,103.1-20c51.6,0,51.6,20,103.1,20c51.6,0,51.6-20,103.1-20c51.6,0,51.6,20,103.1,20 c51.6,0,51.6-20,103.1-20s51.6,20,103.1,20c51.6,0,51.6-20,103.1-20c51.6,0,51.6,20,103.1,20c51.6,0,51.6-20,103.1-20 c51.6,0,51.6,20,103.1,20c51.6,0,51.6-20,103.1-20c51.6,0,51.6,20,103.1,20c51.6,0,51.6-20,103.1-20c51.6,0,51.6,20,103.1,20 c51.6,0,51.6-20,103.1-20c51.6,0,51.6,20,103.1,20"></path> </g> <g class="st1"> <path class="st2" d="M-266,1109c51.6,0,51.6,20,103.1,20s51.6-20,103.1-20c51.6,0,51.6,20,103.1,20c51.6,0,51.6-20,103.1-20 c51.6,0,51.6,20,103.1,20c51.6,0,51.6-20,103.1-20c51.6,0,51.6,20,103.1,20c51.6,0,51.6-20,103.1-20c51.6,0,51.6,20,103.1,20 c51.6,0,51.6-20,103.1-20c51.6,0,51.6,20,103.1,20c51.6,0,51.6-20,103.1-20c51.6,0,51.6,20,103.1,20c51.6,0,51.6-20,103.1-20 c51.6,0,51.6,20,103.1,20c51.6,0,51.6-20,103.1-20c51.6,0,51.6,20,103.1,20c51.6,0,51.6-20,103.1-20c51.6,0,51.6,20,103.1,20 c51.6,0,51.6-20,103.1-20c51.6,0,51.6,20,103.1,20c51.6,0,51.6-20,103.1-20c51.6,0,51.6,20,103.1,20c51.6,0,51.6-20,103.1-20 c51.6,0,51.6,20,103.1,20c51.6,0,51.6-20,103.1-20c51.6,0,51.6,20,103.1,20c51.6,0,51.6-20,103.1-20c51.6,0,51.6,20,103.1,20 c51.6,0,51.6-20,103.1-20s51.6,20,103.1,20c51.6,0,51.6-20,103.1-20c51.6,0,51.6,20,103.1,20c51.6,0,51.6-20,103.1-20 c51.6,0,51.6,20,103.1,20c51.6,0,51.6-20,103.1-20c51.6,0,51.6,20,103.1,20c51.6,0,51.6-20,103.1-20c51.6,0,51.6,20,103.1,20 c51.6,0,51.6-20,103.1-20c51.6,0,51.6,20,103.1,20"></path> </g> <g class="st1"> <path class="st2" d="M-258,1059c51.6,0,51.6,20,103.1,20s51.6-20,103.1-20c51.6,0,51.6,20,103.1,20c51.6,0,51.6-20,103.1-20 c51.6,0,51.6,20,103.1,20c51.6,0,51.6-20,103.1-20c51.6,0,51.6,20,103.1,20c51.6,0,51.6-20,103.1-20c51.6,0,51.6,20,103.1,20 c51.6,0,51.6-20,103.1-20c51.6,0,51.6,20,103.1,20c51.6,0,51.6-20,103.1-20c51.6,0,51.6,20,103.1,20c51.6,0,51.6-20,103.1-20 c51.6,0,51.6,20,103.1,20c51.6,0,51.6-20,103.1-20c51.6,0,51.6,20,103.1,20c51.6,0,51.6-20,103.1-20c51.6,0,51.6,20,103.1,20 c51.6,0,51.6-20,103.1-20c51.6,0,51.6,20,103.1,20c51.6,0,51.6-20,103.1-20c51.6,0,51.6,20,103.1,20c51.6,0,51.6-20,103.1-20 c51.6,0,51.6,20,103.1,20c51.6,0,51.6-20,103.1-20c51.6,0,51.6,20,103.1,20c51.6,0,51.6-20,103.1-20c51.6,0,51.6,20,103.1,20 c51.6,0,51.6-20,103.1-20s51.6,20,103.1,20c51.6,0,51.6-20,103.1-20c51.6,0,51.6,20,103.1,20c51.6,0,51.6-20,103.1-20 c51.6,0,51.6,20,103.1,20c51.6,0,51.6-20,103.1-20c51.6,0,51.6,20,103.1,20c51.6,0,51.6-20,103.1-20c51.6,0,51.6,20,103.1,20 c51.6,0,51.6-20,103.1-20c51.6,0,51.6,20,103.1,20"></path> </g> <g class="st1"> <path class="st2" d="M-250,1009c51.6,0,51.6,20,103.1,20s51.6-20,103.1-20c51.6,0,51.6,20,103.1,20c51.6,0,51.6-20,103.1-20 c51.6,0,51.6,20,103.1,20c51.6,0,51.6-20,103.1-20c51.6,0,51.6,20,103.1,20c51.6,0,51.6-20,103.1-20c51.6,0,51.6,20,103.1,20 c51.6,0,51.6-20,103.1-20c51.6,0,51.6,20,103.1,20c51.6,0,51.6-20,103.1-20c51.6,0,51.6,20,103.1,20c51.6,0,51.6-20,103.1-20 c51.6,0,51.6,20,103.1,20c51.6,0,51.6-20,103.1-20c51.6,0,51.6,20,103.1,20c51.6,0,51.6-20,103.1-20c51.6,0,51.6,20,103.1,20 c51.6,0,51.6-20,103.1-20c51.6,0,51.6,20,103.1,20c51.6,0,51.6-20,103.1-20c51.6,0,51.6,20,103.1,20c51.6,0,51.6-20,103.1-20 c51.6,0,51.6,20,103.1,20c51.6,0,51.6-20,103.1-20c51.6,0,51.6,20,103.1,20c51.6,0,51.6-20,103.1-20c51.6,0,51.6,20,103.1,20 c51.6,0,51.6-20,103.1-20s51.6,20,103.1,20c51.6,0,51.6-20,103.1-20c51.6,0,51.6,20,103.1,20c51.6,0,51.6-20,103.1-20 c51.6,0,51.6,20,103.1,20c51.6,0,51.6-20,103.1-20c51.6,0,51.6,20,103.1,20c51.6,0,51.6-20,103.1-20c51.6,0,51.6,20,103.1,20 c51.6,0,51.6-20,103.1-20c51.6,0,51.6,20,103.1,20"></path> </g> <g class="st1"> <path class="st2" d="M-242,959c51.6,0,51.6,20,103.1,20s51.6-20,103.1-20c51.6,0,51.6,20,103.1,20s51.6-20,103.1-20 c51.6,0,51.6,20,103.1,20c51.6,0,51.6-20,103.1-20c51.6,0,51.6,20,103.1,20c51.6,0,51.6-20,103.1-20c51.6,0,51.6,20,103.1,20 c51.6,0,51.6-20,103.1-20c51.6,0,51.6,20,103.1,20c51.6,0,51.6-20,103.1-20c51.6,0,51.6,20,103.1,20c51.6,0,51.6-20,103.1-20 c51.6,0,51.6,20,103.1,20c51.6,0,51.6-20,103.1-20c51.6,0,51.6,20,103.1,20c51.6,0,51.6-20,103.1-20c51.6,0,51.6,20,103.1,20 c51.6,0,51.6-20,103.1-20c51.6,0,51.6,20,103.1,20c51.6,0,51.6-20,103.1-20c51.6,0,51.6,20,103.1,20c51.6,0,51.6-20,103.1-20 c51.6,0,51.6,20,103.1,20c51.6,0,51.6-20,103.1-20c51.6,0,51.6,20,103.1,20c51.6,0,51.6-20,103.1-20c51.6,0,51.6,20,103.1,20 c51.6,0,51.6-20,103.1-20s51.6,20,103.1,20c51.6,0,51.6-20,103.1-20c51.6,0,51.6,20,103.1,20c51.6,0,51.6-20,103.1-20 c51.6,0,51.6,20,103.1,20c51.6,0,51.6-20,103.1-20c51.6,0,51.6,20,103.1,20c51.6,0,51.6-20,103.1-20c51.6,0,51.6,20,103.1,20 c51.6,0,51.6-20,103.1-20c51.6,0,51.6,20,103.1,20"></path> </g> <g class="st1"> <path class="st2" d="M-234,909c51.6,0,51.6,20,103.1,20s51.6-20,103.1-20c51.6,0,51.6,20,103.1,20s51.6-20,103.1-20 c51.6,0,51.6,20,103.1,20c51.6,0,51.6-20,103.1-20c51.6,0,51.6,20,103.1,20c51.6,0,51.6-20,103.1-20c51.6,0,51.6,20,103.1,20 c51.6,0,51.6-20,103.1-20c51.6,0,51.6,20,103.1,20c51.6,0,51.6-20,103.1-20c51.6,0,51.6,20,103.1,20c51.6,0,51.6-20,103.1-20 c51.6,0,51.6,20,103.1,20c51.6,0,51.6-20,103.1-20c51.6,0,51.6,20,103.1,20c51.6,0,51.6-20,103.1-20c51.6,0,51.6,20,103.1,20 c51.6,0,51.6-20,103.1-20c51.6,0,51.6,20,103.1,20c51.6,0,51.6-20,103.1-20c51.6,0,51.6,20,103.1,20c51.6,0,51.6-20,103.1-20 c51.6,0,51.6,20,103.1,20c51.6,0,51.6-20,103.1-20c51.6,0,51.6,20,103.1,20c51.6,0,51.6-20,103.1-20c51.6,0,51.6,20,103.1,20 c51.6,0,51.6-20,103.1-20s51.6,20,103.1,20c51.6,0,51.6-20,103.1-20c51.6,0,51.6,20,103.1,20c51.6,0,51.6-20,103.1-20 c51.6,0,51.6,20,103.1,20c51.6,0,51.6-20,103.1-20c51.6,0,51.6,20,103.1,20c51.6,0,51.6-20,103.1-20c51.6,0,51.6,20,103.1,20 c51.6,0,51.6-20,103.1-20c51.6,0,51.6,20,103.1,20"></path> </g> <g class="st1"> <path class="st2" d="M-226,859c51.6,0,51.6,20,103.1,20c51.6,0,51.6-20,103.1-20c51.6,0,51.6,20,103.1,20 c51.6,0,51.6-20,103.1-20c51.6,0,51.6,20,103.1,20c51.6,0,51.6-20,103.1-20c51.6,0,51.6,20,103.1,20c51.6,0,51.6-20,103.1-20 c51.6,0,51.6,20,103.1,20c51.6,0,51.6-20,103.1-20c51.6,0,51.6,20,103.1,20c51.6,0,51.6-20,103.1-20c51.6,0,51.6,20,103.1,20 c51.6,0,51.6-20,103.1-20c51.6,0,51.6,20,103.1,20c51.6,0,51.6-20,103.1-20c51.6,0,51.6,20,103.1,20c51.6,0,51.6-20,103.1-20 c51.6,0,51.6,20,103.1,20c51.6,0,51.6-20,103.1-20c51.6,0,51.6,20,103.1,20c51.6,0,51.6-20,103.1-20c51.6,0,51.6,20,103.1,20 c51.6,0,51.6-20,103.1-20c51.6,0,51.6,20,103.1,20c51.6,0,51.6-20,103.1-20c51.6,0,51.6,20,103.1,20c51.6,0,51.6-20,103.1-20 c51.6,0,51.6,20,103.1,20c51.6,0,51.6-20,103.1-20s51.6,20,103.1,20c51.6,0,51.6-20,103.1-20c51.6,0,51.6,20,103.1,20 c51.6,0,51.6-20,103.1-20c51.6,0,51.6,20,103.1,20c51.6,0,51.6-20,103.1-20c51.6,0,51.6,20,103.1,20c51.6,0,51.6-20,103.1-20 c51.6,0,51.6,20,103.1,20c51.6,0,51.6-20,103.1-20c51.6,0,51.6,20,103.1,20"></path> </g> <g class="st1"> <path class="st2" d="M-218,809c51.6,0,51.6,20,103.1,20c51.6,0,51.6-20,103.1-20c51.6,0,51.6,20,103.1,20 c51.6,0,51.6-20,103.1-20c51.6,0,51.6,20,103.1,20c51.6,0,51.6-20,103.1-20c51.6,0,51.6,20,103.1,20c51.6,0,51.6-20,103.1-20 c51.6,0,51.6,20,103.1,20c51.6,0,51.6-20,103.1-20c51.6,0,51.6,20,103.1,20c51.6,0,51.6-20,103.1-20c51.6,0,51.6,20,103.1,20 c51.6,0,51.6-20,103.1-20c51.6,0,51.6,20,103.1,20c51.6,0,51.6-20,103.1-20c51.6,0,51.6,20,103.1,20c51.6,0,51.6-20,103.1-20 c51.6,0,51.6,20,103.1,20c51.6,0,51.6-20,103.1-20c51.6,0,51.6,20,103.1,20c51.6,0,51.6-20,103.1-20c51.6,0,51.6,20,103.1,20 c51.6,0,51.6-20,103.1-20c51.6,0,51.6,20,103.1,20c51.6,0,51.6-20,103.1-20c51.6,0,51.6,20,103.1,20c51.6,0,51.6-20,103.1-20 c51.6,0,51.6,20,103.1,20c51.6,0,51.6-20,103.1-20s51.6,20,103.1,20c51.6,0,51.6-20,103.1-20c51.6,0,51.6,20,103.1,20 c51.6,0,51.6-20,103.1-20c51.6,0,51.6,20,103.1,20c51.6,0,51.6-20,103.1-20c51.6,0,51.6,20,103.1,20c51.6,0,51.6-20,103.1-20 c51.6,0,51.6,20,103.1,20c51.6,0,51.6-20,103.1-20c51.6,0,51.6,20,103.1,20"></path> </g> <g class="st1"> <path class="st2" d="M-210,759c51.6,0,51.6,20,103.1,20c51.6,0,51.6-20,103.1-20c51.6,0,51.6,20,103.1,20 c51.6,0,51.6-20,103.1-20c51.6,0,51.6,20,103.1,20c51.6,0,51.6-20,103.1-20c51.6,0,51.6,20,103.1,20c51.6,0,51.6-20,103.1-20 c51.6,0,51.6,20,103.1,20c51.6,0,51.6-20,103.1-20c51.6,0,51.6,20,103.1,20c51.6,0,51.6-20,103.1-20c51.6,0,51.6,20,103.1,20 c51.6,0,51.6-20,103.1-20c51.6,0,51.6,20,103.1,20c51.6,0,51.6-20,103.1-20c51.6,0,51.6,20,103.1,20c51.6,0,51.6-20,103.1-20 c51.6,0,51.6,20,103.1,20c51.6,0,51.6-20,103.1-20c51.6,0,51.6,20,103.1,20c51.6,0,51.6-20,103.1-20c51.6,0,51.6,20,103.1,20 c51.6,0,51.6-20,103.1-20c51.6,0,51.6,20,103.1,20c51.6,0,51.6-20,103.1-20c51.6,0,51.6,20,103.1,20c51.6,0,51.6-20,103.1-20 c51.6,0,51.6,20,103.1,20c51.6,0,51.6-20,103.1-20s51.6,20,103.1,20c51.6,0,51.6-20,103.1-20c51.6,0,51.6,20,103.1,20 c51.6,0,51.6-20,103.1-20c51.6,0,51.6,20,103.1,20c51.6,0,51.6-20,103.1-20c51.6,0,51.6,20,103.1,20c51.6,0,51.6-20,103.1-20 c51.6,0,51.6,20,103.1,20c51.6,0,51.6-20,103.1-20c51.6,0,51.6,20,103.1,20"></path> </g> <g class="st1"> <path class="st2" d="M-202,709c51.6,0,51.6,20,103.1,20c51.6,0,51.6-20,103.1-20c51.6,0,51.6,20,103.1,20 c51.6,0,51.6-20,103.1-20c51.6,0,51.6,20,103.1,20c51.6,0,51.6-20,103.1-20c51.6,0,51.6,20,103.1,20c51.6,0,51.6-20,103.1-20 c51.6,0,51.6,20,103.1,20c51.6,0,51.6-20,103.1-20c51.6,0,51.6,20,103.1,20c51.6,0,51.6-20,103.1-20c51.6,0,51.6,20,103.1,20 c51.6,0,51.6-20,103.1-20c51.6,0,51.6,20,103.1,20c51.6,0,51.6-20,103.1-20c51.6,0,51.6,20,103.1,20c51.6,0,51.6-20,103.1-20 c51.6,0,51.6,20,103.1,20c51.6,0,51.6-20,103.1-20c51.6,0,51.6,20,103.1,20c51.6,0,51.6-20,103.1-20c51.6,0,51.6,20,103.1,20 c51.6,0,51.6-20,103.1-20c51.6,0,51.6,20,103.1,20c51.6,0,51.6-20,103.1-20c51.6,0,51.6,20,103.1,20c51.6,0,51.6-20,103.1-20 c51.6,0,51.6,20,103.1,20c51.6,0,51.6-20,103.1-20s51.6,20,103.1,20c51.6,0,51.6-20,103.1-20c51.6,0,51.6,20,103.1,20 c51.6,0,51.6-20,103.1-20c51.6,0,51.6,20,103.1,20c51.6,0,51.6-20,103.1-20c51.6,0,51.6,20,103.1,20c51.6,0,51.6-20,103.1-20 c51.6,0,51.6,20,103.1,20c51.6,0,51.6-20,103.1-20c51.6,0,51.6,20,103.1,20"></path> </g> <g class="st1"> <path class="st2" d="M-194,659c51.6,0,51.6,20,103.1,20c51.6,0,51.6-20,103.1-20c51.6,0,51.6,20,103.1,20 c51.6,0,51.6-20,103.1-20c51.6,0,51.6,20,103.1,20c51.6,0,51.6-20,103.1-20c51.6,0,51.6,20,103.1,20c51.6,0,51.6-20,103.1-20 c51.6,0,51.6,20,103.1,20c51.6,0,51.6-20,103.1-20c51.6,0,51.6,20,103.1,20c51.6,0,51.6-20,103.1-20c51.6,0,51.6,20,103.1,20 c51.6,0,51.6-20,103.1-20c51.6,0,51.6,20,103.1,20c51.6,0,51.6-20,103.1-20c51.6,0,51.6,20,103.1,20c51.6,0,51.6-20,103.1-20 c51.6,0,51.6,20,103.1,20c51.6,0,51.6-20,103.1-20c51.6,0,51.6,20,103.1,20c51.6,0,51.6-20,103.1-20c51.6,0,51.6,20,103.1,20 c51.6,0,51.6-20,103.1-20c51.6,0,51.6,20,103.1,20c51.6,0,51.6-20,103.1-20c51.6,0,51.6,20,103.1,20c51.6,0,51.6-20,103.1-20 c51.6,0,51.6,20,103.1,20c51.6,0,51.6-20,103.1-20s51.6,20,103.1,20c51.6,0,51.6-20,103.1-20c51.6,0,51.6,20,103.1,20 c51.6,0,51.6-20,103.1-20c51.6,0,51.6,20,103.1,20c51.6,0,51.6-20,103.1-20c51.6,0,51.6,20,103.1,20c51.6,0,51.6-20,103.1-20 c51.6,0,51.6,20,103.1,20c51.6,0,51.6-20,103.1-20c51.6,0,51.6,20,103.1,20"></path> </g> <g class="st1"> <path class="st2" d="M-186,609c51.6,0,51.6,20,103.1,20c51.6,0,51.6-20,103.1-20c51.6,0,51.6,20,103.1,20 c51.6,0,51.6-20,103.1-20c51.6,0,51.6,20,103.1,20c51.6,0,51.6-20,103.1-20c51.6,0,51.6,20,103.1,20c51.6,0,51.6-20,103.1-20 c51.6,0,51.6,20,103.1,20c51.6,0,51.6-20,103.1-20c51.6,0,51.6,20,103.1,20c51.6,0,51.6-20,103.1-20c51.6,0,51.6,20,103.1,20 c51.6,0,51.6-20,103.1-20c51.6,0,51.6,20,103.1,20c51.6,0,51.6-20,103.1-20c51.6,0,51.6,20,103.1,20c51.6,0,51.6-20,103.1-20 c51.6,0,51.6,20,103.1,20c51.6,0,51.6-20,103.1-20c51.6,0,51.6,20,103.1,20c51.6,0,51.6-20,103.1-20c51.6,0,51.6,20,103.1,20 c51.6,0,51.6-20,103.1-20c51.6,0,51.6,20,103.1,20c51.6,0,51.6-20,103.1-20c51.6,0,51.6,20,103.1,20c51.6,0,51.6-20,103.1-20 c51.6,0,51.6,20,103.1,20c51.6,0,51.6-20,103.1-20s51.6,20,103.1,20c51.6,0,51.6-20,103.1-20c51.6,0,51.6,20,103.1,20 c51.6,0,51.6-20,103.1-20c51.6,0,51.6,20,103.1,20c51.6,0,51.6-20,103.1-20c51.6,0,51.6,20,103.1,20c51.6,0,51.6-20,103.1-20 c51.6,0,51.6,20,103.1,20c51.6,0,51.6-20,103.1-20c51.6,0,51.6,20,103.1,20"></path> </g> <g class="st1"> <path class="st2" d="M-178,559c51.6,0,51.6,20,103.1,20c51.6,0,51.6-20,103.1-20c51.6,0,51.6,20,103.1,20 c51.6,0,51.6-20,103.1-20c51.6,0,51.6,20,103.1,20c51.6,0,51.6-20,103.1-20c51.6,0,51.6,20,103.1,20c51.6,0,51.6-20,103.1-20 c51.6,0,51.6,20,103.1,20c51.6,0,51.6-20,103.1-20c51.6,0,51.6,20,103.1,20c51.6,0,51.6-20,103.1-20c51.6,0,51.6,20,103.1,20 c51.6,0,51.6-20,103.1-20c51.6,0,51.6,20,103.1,20c51.6,0,51.6-20,103.1-20c51.6,0,51.6,20,103.1,20c51.6,0,51.6-20,103.1-20 c51.6,0,51.6,20,103.1,20c51.6,0,51.6-20,103.1-20c51.6,0,51.6,20,103.1,20c51.6,0,51.6-20,103.1-20c51.6,0,51.6,20,103.1,20 c51.6,0,51.6-20,103.1-20c51.6,0,51.6,20,103.1,20c51.6,0,51.6-20,103.1-20c51.6,0,51.6,20,103.1,20c51.6,0,51.6-20,103.1-20 c51.6,0,51.6,20,103.1,20c51.6,0,51.6-20,103.1-20s51.6,20,103.1,20c51.6,0,51.6-20,103.1-20c51.6,0,51.6,20,103.1,20 c51.6,0,51.6-20,103.1-20c51.6,0,51.6,20,103.1,20c51.6,0,51.6-20,103.1-20c51.6,0,51.6,20,103.1,20c51.6,0,51.6-20,103.1-20 c51.6,0,51.6,20,103.1,20c51.6,0,51.6-20,103.1-20c51.6,0,51.6,20,103.1,20"></path> </g> <g class="st1"> <path class="st2" d="M-170,509c51.6,0,51.6,20,103.1,20c51.6,0,51.6-20,103.1-20c51.6,0,51.6,20,103.1,20 c51.6,0,51.6-20,103.1-20c51.6,0,51.6,20,103.1,20c51.6,0,51.6-20,103.1-20c51.6,0,51.6,20,103.1,20c51.6,0,51.6-20,103.1-20 c51.6,0,51.6,20,103.1,20c51.6,0,51.6-20,103.1-20c51.6,0,51.6,20,103.1,20c51.6,0,51.6-20,103.1-20c51.6,0,51.6,20,103.1,20 c51.6,0,51.6-20,103.1-20c51.6,0,51.6,20,103.1,20c51.6,0,51.6-20,103.1-20c51.6,0,51.6,20,103.1,20c51.6,0,51.6-20,103.1-20 c51.6,0,51.6,20,103.1,20c51.6,0,51.6-20,103.1-20c51.6,0,51.6,20,103.1,20c51.6,0,51.6-20,103.1-20c51.6,0,51.6,20,103.1,20 c51.6,0,51.6-20,103.1-20c51.6,0,51.6,20,103.1,20c51.6,0,51.6-20,103.1-20c51.6,0,51.6,20,103.1,20c51.6,0,51.6-20,103.1-20 c51.6,0,51.6,20,103.1,20c51.6,0,51.6-20,103.1-20s51.6,20,103.1,20c51.6,0,51.6-20,103.1-20c51.6,0,51.6,20,103.1,20 c51.6,0,51.6-20,103.1-20c51.6,0,51.6,20,103.1,20c51.6,0,51.6-20,103.1-20c51.6,0,51.6,20,103.1,20c51.6,0,51.6-20,103.1-20 c51.6,0,51.6,20,103.1,20c51.6,0,51.6-20,103.1-20c51.6,0,51.6,20,103.1,20"></path> </g> <g class="st1"> <path class="st2" d="M-162,459c51.6,0,51.6,20,103.1,20c51.6,0,51.6-20,103.1-20c51.6,0,51.6,20,103.1,20 c51.6,0,51.6-20,103.1-20c51.6,0,51.6,20,103.1,20c51.6,0,51.6-20,103.1-20c51.6,0,51.6,20,103.1,20c51.6,0,51.6-20,103.1-20 c51.6,0,51.6,20,103.1,20c51.6,0,51.6-20,103.1-20c51.6,0,51.6,20,103.1,20c51.6,0,51.6-20,103.1-20c51.6,0,51.6,20,103.1,20 c51.6,0,51.6-20,103.1-20c51.6,0,51.6,20,103.1,20c51.6,0,51.6-20,103.1-20c51.6,0,51.6,20,103.1,20c51.6,0,51.6-20,103.1-20 c51.6,0,51.6,20,103.1,20c51.6,0,51.6-20,103.1-20c51.6,0,51.6,20,103.1,20c51.6,0,51.6-20,103.1-20c51.6,0,51.6,20,103.1,20 c51.6,0,51.6-20,103.1-20c51.6,0,51.6,20,103.1,20c51.6,0,51.6-20,103.1-20c51.6,0,51.6,20,103.1,20c51.6,0,51.6-20,103.1-20 c51.6,0,51.6,20,103.1,20c51.6,0,51.6-20,103.1-20s51.6,20,103.1,20c51.6,0,51.6-20,103.1-20c51.6,0,51.6,20,103.1,20 c51.6,0,51.6-20,103.1-20c51.6,0,51.6,20,103.1,20c51.6,0,51.6-20,103.1-20c51.6,0,51.6,20,103.1,20c51.6,0,51.6-20,103.1-20 c51.6,0,51.6,20,103.1,20c51.6,0,51.6-20,103.1-20c51.6,0,51.6,20,103.1,20"></path> </g> <g class="st1"> <path class="st2" d="M-154,409c51.6,0,51.6,20,103.1,20c51.6,0,51.6-20,103.1-20c51.6,0,51.6,20,103.1,20 c51.6,0,51.6-20,103.1-20c51.6,0,51.6,20,103.1,20c51.6,0,51.6-20,103.1-20c51.6,0,51.6,20,103.1,20c51.6,0,51.6-20,103.1-20 c51.6,0,51.6,20,103.1,20c51.6,0,51.6-20,103.1-20c51.6,0,51.6,20,103.1,20c51.6,0,51.6-20,103.1-20s51.6,20,103.1,20 c51.6,0,51.6-20,103.1-20c51.6,0,51.6,20,103.1,20c51.6,0,51.6-20,103.1-20c51.6,0,51.6,20,103.1,20c51.6,0,51.6-20,103.1-20 c51.6,0,51.6,20,103.1,20c51.6,0,51.6-20,103.1-20c51.6,0,51.6,20,103.1,20c51.6,0,51.6-20,103.1-20c51.6,0,51.6,20,103.1,20 c51.6,0,51.6-20,103.1-20c51.6,0,51.6,20,103.1,20c51.6,0,51.6-20,103.1-20c51.6,0,51.6,20,103.1,20c51.6,0,51.6-20,103.1-20 c51.6,0,51.6,20,103.1,20c51.6,0,51.6-20,103.1-20s51.6,20,103.1,20c51.6,0,51.6-20,103.1-20c51.6,0,51.6,20,103.1,20 c51.6,0,51.6-20,103.1-20c51.6,0,51.6,20,103.1,20c51.6,0,51.6-20,103.1-20c51.6,0,51.6,20,103.1,20c51.6,0,51.6-20,103.1-20 c51.6,0,51.6,20,103.1,20c51.6,0,51.6-20,103.1-20c51.6,0,51.6,20,103.1,20"></path> </g> <g class="st1"> <path class="st2" d="M-146,359c51.6,0,51.6,20,103.1,20c51.6,0,51.6-20,103.1-20c51.6,0,51.6,20,103.1,20 c51.6,0,51.6-20,103.1-20c51.6,0,51.6,20,103.1,20c51.6,0,51.6-20,103.1-20c51.6,0,51.6,20,103.1,20c51.6,0,51.6-20,103.1-20 c51.6,0,51.6,20,103.1,20c51.6,0,51.6-20,103.1-20c51.6,0,51.6,20,103.1,20c51.6,0,51.6-20,103.1-20s51.6,20,103.1,20 c51.6,0,51.6-20,103.1-20c51.6,0,51.6,20,103.1,20c51.6,0,51.6-20,103.1-20c51.6,0,51.6,20,103.1,20c51.6,0,51.6-20,103.1-20 c51.6,0,51.6,20,103.1,20c51.6,0,51.6-20,103.1-20c51.6,0,51.6,20,103.1,20c51.6,0,51.6-20,103.1-20c51.6,0,51.6,20,103.1,20 c51.6,0,51.6-20,103.1-20c51.6,0,51.6,20,103.1,20c51.6,0,51.6-20,103.1-20c51.6,0,51.6,20,103.1,20c51.6,0,51.6-20,103.1-20 c51.6,0,51.6,20,103.1,20c51.6,0,51.6-20,103.1-20s51.6,20,103.1,20c51.6,0,51.6-20,103.1-20c51.6,0,51.6,20,103.1,20 c51.6,0,51.6-20,103.1-20c51.6,0,51.6,20,103.1,20c51.6,0,51.6-20,103.1-20c51.6,0,51.6,20,103.1,20c51.6,0,51.6-20,103.1-20 c51.6,0,51.6,20,103.1,20c51.6,0,51.6-20,103.1-20c51.6,0,51.6,20,103.1,20"></path> </g> <g class="st1"> <path class="st2" d="M-138,309c51.6,0,51.6,20,103.1,20c51.6,0,51.6-20,103.1-20c51.6,0,51.6,20,103.1,20 c51.6,0,51.6-20,103.1-20c51.6,0,51.6,20,103.1,20c51.6,0,51.6-20,103.1-20c51.6,0,51.6,20,103.1,20c51.6,0,51.6-20,103.1-20 c51.6,0,51.6,20,103.1,20c51.6,0,51.6-20,103.1-20c51.6,0,51.6,20,103.1,20c51.6,0,51.6-20,103.1-20s51.6,20,103.1,20 c51.6,0,51.6-20,103.1-20c51.6,0,51.6,20,103.1,20c51.6,0,51.6-20,103.1-20c51.6,0,51.6,20,103.1,20c51.6,0,51.6-20,103.1-20 c51.6,0,51.6,20,103.1,20c51.6,0,51.6-20,103.1-20c51.6,0,51.6,20,103.1,20c51.6,0,51.6-20,103.1-20c51.6,0,51.6,20,103.1,20 c51.6,0,51.6-20,103.1-20c51.6,0,51.6,20,103.1,20c51.6,0,51.6-20,103.1-20c51.6,0,51.6,20,103.1,20c51.6,0,51.6-20,103.1-20 c51.6,0,51.6,20,103.1,20c51.6,0,51.6-20,103.1-20s51.6,20,103.1,20c51.6,0,51.6-20,103.1-20c51.6,0,51.6,20,103.1,20 c51.6,0,51.6-20,103.1-20c51.6,0,51.6,20,103.1,20c51.6,0,51.6-20,103.1-20c51.6,0,51.6,20,103.1,20c51.6,0,51.6-20,103.1-20 c51.6,0,51.6,20,103.1,20c51.6,0,51.6-20,103.1-20c51.6,0,51.6,20,103.1,20"></path> </g> <g class="st1"> <path class="st2" d="M-130,259c51.6,0,51.6,20,103.1,20c51.6,0,51.6-20,103.1-20c51.6,0,51.6,20,103.1,20 c51.6,0,51.6-20,103.1-20c51.6,0,51.6,20,103.1,20c51.6,0,51.6-20,103.1-20c51.6,0,51.6,20,103.1,20c51.6,0,51.6-20,103.1-20 c51.6,0,51.6,20,103.1,20c51.6,0,51.6-20,103.1-20c51.6,0,51.6,20,103.1,20c51.6,0,51.6-20,103.1-20s51.6,20,103.1,20 c51.6,0,51.6-20,103.1-20c51.6,0,51.6,20,103.1,20c51.6,0,51.6-20,103.1-20c51.6,0,51.6,20,103.1,20c51.6,0,51.6-20,103.1-20 c51.6,0,51.6,20,103.1,20c51.6,0,51.6-20,103.1-20c51.6,0,51.6,20,103.1,20c51.6,0,51.6-20,103.1-20c51.6,0,51.6,20,103.1,20 c51.6,0,51.6-20,103.1-20c51.6,0,51.6,20,103.1,20c51.6,0,51.6-20,103.1-20c51.6,0,51.6,20,103.1,20c51.6,0,51.6-20,103.1-20 c51.6,0,51.6,20,103.1,20c51.6,0,51.6-20,103.1-20s51.6,20,103.1,20c51.6,0,51.6-20,103.1-20c51.6,0,51.6,20,103.1,20 c51.6,0,51.6-20,103.1-20c51.6,0,51.6,20,103.1,20c51.6,0,51.6-20,103.1-20c51.6,0,51.6,20,103.1,20c51.6,0,51.6-20,103.1-20 c51.6,0,51.6,20,103.1,20c51.6,0,51.6-20,103.1-20c51.6,0,51.6,20,103.1,20"></path> </g> <g class="st1"> <path class="st2" d="M-122,209c51.6,0,51.6,20,103.1,20c51.6,0,51.6-20,103.1-20c51.6,0,51.6,20,103.1,20 c51.6,0,51.6-20,103.1-20c51.6,0,51.6,20,103.1,20c51.6,0,51.6-20,103.1-20c51.6,0,51.6,20,103.1,20c51.6,0,51.6-20,103.1-20 c51.6,0,51.6,20,103.1,20c51.6,0,51.6-20,103.1-20c51.6,0,51.6,20,103.1,20c51.6,0,51.6-20,103.1-20s51.6,20,103.1,20 c51.6,0,51.6-20,103.1-20c51.6,0,51.6,20,103.1,20c51.6,0,51.6-20,103.1-20c51.6,0,51.6,20,103.1,20c51.6,0,51.6-20,103.1-20 c51.6,0,51.6,20,103.1,20c51.6,0,51.6-20,103.1-20c51.6,0,51.6,20,103.1,20c51.6,0,51.6-20,103.1-20c51.6,0,51.6,20,103.1,20 c51.6,0,51.6-20,103.1-20c51.6,0,51.6,20,103.1,20c51.6,0,51.6-20,103.1-20c51.6,0,51.6,20,103.1,20c51.6,0,51.6-20,103.1-20 c51.6,0,51.6,20,103.1,20c51.6,0,51.6-20,103.1-20s51.6,20,103.1,20c51.6,0,51.6-20,103.1-20c51.6,0,51.6,20,103.1,20 c51.6,0,51.6-20,103.1-20c51.6,0,51.6,20,103.1,20c51.6,0,51.6-20,103.1-20c51.6,0,51.6,20,103.1,20c51.6,0,51.6-20,103.1-20 c51.6,0,51.6,20,103.1,20c51.6,0,51.6-20,103.1-20c51.6,0,51.6,20,103.1,20"></path> </g> <g class="st1"> <path class="st2" d="M-114,159c51.6,0,51.6,20,103.1,20s51.6-20,103.1-20c51.6,0,51.6,20,103.1,20c51.6,0,51.6-20,103.1-20 c51.6,0,51.6,20,103.1,20c51.6,0,51.6-20,103.1-20c51.6,0,51.6,20,103.1,20c51.6,0,51.6-20,103.1-20c51.6,0,51.6,20,103.1,20 c51.6,0,51.6-20,103.1-20c51.6,0,51.6,20,103.1,20c51.6,0,51.6-20,103.1-20s51.6,20,103.1,20c51.6,0,51.6-20,103.1-20 c51.6,0,51.6,20,103.1,20c51.6,0,51.6-20,103.1-20c51.6,0,51.6,20,103.1,20c51.6,0,51.6-20,103.1-20c51.6,0,51.6,20,103.1,20 c51.6,0,51.6-20,103.1-20c51.6,0,51.6,20,103.1,20c51.6,0,51.6-20,103.1-20c51.6,0,51.6,20,103.1,20c51.6,0,51.6-20,103.1-20 c51.6,0,51.6,20,103.1,20c51.6,0,51.6-20,103.1-20c51.6,0,51.6,20,103.1,20c51.6,0,51.6-20,103.1-20c51.6,0,51.6,20,103.1,20 c51.6,0,51.6-20,103.1-20s51.6,20,103.1,20c51.6,0,51.6-20,103.1-20c51.6,0,51.6,20,103.1,20c51.6,0,51.6-20,103.1-20 c51.6,0,51.6,20,103.1,20c51.6,0,51.6-20,103.1-20c51.6,0,51.6,20,103.1,20c51.6,0,51.6-20,103.1-20c51.6,0,51.6,20,103.1,20 c51.6,0,51.6-20,103.1-20c51.6,0,51.6,20,103.1,20"></path> </g> <g class="st1"> <path class="st2" d="M-106,109c51.6,0,51.6,20,103.1,20s51.6-20,103.1-20c51.6,0,51.6,20,103.1,20c51.6,0,51.6-20,103.1-20 c51.6,0,51.6,20,103.1,20c51.6,0,51.6-20,103.1-20c51.6,0,51.6,20,103.1,20c51.6,0,51.6-20,103.1-20c51.6,0,51.6,20,103.1,20 c51.6,0,51.6-20,103.1-20c51.6,0,51.6,20,103.1,20c51.6,0,51.6-20,103.1-20s51.6,20,103.1,20c51.6,0,51.6-20,103.1-20 c51.6,0,51.6,20,103.1,20c51.6,0,51.6-20,103.1-20c51.6,0,51.6,20,103.1,20c51.6,0,51.6-20,103.1-20c51.6,0,51.6,20,103.1,20 c51.6,0,51.6-20,103.1-20c51.6,0,51.6,20,103.1,20c51.6,0,51.6-20,103.1-20c51.6,0,51.6,20,103.1,20c51.6,0,51.6-20,103.1-20 c51.6,0,51.6,20,103.1,20c51.6,0,51.6-20,103.1-20c51.6,0,51.6,20,103.1,20c51.6,0,51.6-20,103.1-20c51.6,0,51.6,20,103.1,20 c51.6,0,51.6-20,103.1-20s51.6,20,103.1,20c51.6,0,51.6-20,103.1-20c51.6,0,51.6,20,103.1,20c51.6,0,51.6-20,103.1-20 c51.6,0,51.6,20,103.1,20c51.6,0,51.6-20,103.1-20c51.6,0,51.6,20,103.1,20c51.6,0,51.6-20,103.1-20c51.6,0,51.6,20,103.1,20 c51.6,0,51.6-20,103.1-20c51.6,0,51.6,20,103.1,20"></path> </g> <g class="st1"> <path class="st2" d="M-98,59c51.6,0,51.6,20,103.1,20s51.6-20,103.1-20c51.6,0,51.6,20,103.1,20s51.6-20,103.1-20 C366,59,366,79,417.6,79c51.6,0,51.6-20,103.1-20c51.6,0,51.6,20,103.1,20c51.6,0,51.6-20,103.1-20c51.6,0,51.6,20,103.1,20 c51.6,0,51.6-20,103.1-20c51.6,0,51.6,20,103.1,20c51.6,0,51.6-20,103.1-20s51.6,20,103.1,20c51.6,0,51.6-20,103.1-20 c51.6,0,51.6,20,103.1,20c51.6,0,51.6-20,103.1-20c51.6,0,51.6,20,103.1,20c51.6,0,51.6-20,103.1-20c51.6,0,51.6,20,103.1,20 c51.6,0,51.6-20,103.1-20c51.6,0,51.6,20,103.1,20c51.6,0,51.6-20,103.1-20c51.6,0,51.6,20,103.1,20c51.6,0,51.6-20,103.1-20 c51.6,0,51.6,20,103.1,20c51.6,0,51.6-20,103.1-20c51.6,0,51.6,20,103.1,20c51.6,0,51.6-20,103.1-20c51.6,0,51.6,20,103.1,20 c51.6,0,51.6-20,103.1-20s51.6,20,103.1,20c51.6,0,51.6-20,103.1-20c51.6,0,51.6,20,103.1,20c51.6,0,51.6-20,103.1-20 c51.6,0,51.6,20,103.1,20c51.6,0,51.6-20,103.1-20c51.6,0,51.6,20,103.1,20c51.6,0,51.6-20,103.1-20c51.6,0,51.6,20,103.1,20 c51.6,0,51.6-20,103.1-20c51.6,0,51.6,20,103.1,20"></path> </g> <g class="st1"> <path class="st2" d="M-90,9c51.6,0,51.6,20,103.1,20S64.7,9,116.2,9c51.6,0,51.6,20,103.1,20S270.9,9,322.5,9 C374,9,374,29,425.6,29c51.6,0,51.6-20,103.1-20c51.6,0,51.6,20,103.1,20C683.4,29,683.4,9,735,9c51.6,0,51.6,20,103.1,20 c51.6,0,51.6-20,103.1-20c51.6,0,51.6,20,103.1,20c51.6,0,51.6-20,103.1-20s51.6,20,103.1,20c51.6,0,51.6-20,103.1-20 c51.6,0,51.6,20,103.1,20c51.6,0,51.6-20,103.1-20c51.6,0,51.6,20,103.1,20c51.6,0,51.6-20,103.1-20c51.6,0,51.6,20,103.1,20 c51.6,0,51.6-20,103.1-20c51.6,0,51.6,20,103.1,20c51.6,0,51.6-20,103.1-20c51.6,0,51.6,20,103.1,20c51.6,0,51.6-20,103.1-20 c51.6,0,51.6,20,103.1,20c51.6,0,51.6-20,103.1-20c51.6,0,51.6,20,103.1,20c51.6,0,51.6-20,103.1-20c51.6,0,51.6,20,103.1,20 c51.6,0,51.6-20,103.1-20s51.6,20,103.1,20c51.6,0,51.6-20,103.1-20c51.6,0,51.6,20,103.1,20c51.6,0,51.6-20,103.1-20 c51.6,0,51.6,20,103.1,20c51.6,0,51.6-20,103.1-20c51.6,0,51.6,20,103.1,20c51.6,0,51.6-20,103.1-20c51.6,0,51.6,20,103.1,20 c51.6,0,51.6-20,103.1-20c51.6,0,51.6,20,103.1,20"></path> </g> </g> <polygon class="st3" points="3473,829.1 2951.4,721.7 3119.2,1227.1 "></polygon> <g> <defs> <path id="SVGID_3_" d="M2724.5,1329.9c-63.2,0-124.6-12.4-182.5-36.9c-55.8-23.6-105.9-57.4-149-100.4 c-43-43-76.8-93.1-100.4-149c-24.5-57.8-36.9-119.2-36.9-182.5c0-63.2,12.4-124.6,36.9-182.5c23.6-55.8,57.4-105.9,100.4-149 c43-43,93.1-76.8,149-100.4c57.8-24.5,119.2-36.9,182.5-36.9s124.6,12.4,182.5,36.9c55.8,23.6,105.9,57.4,149,100.4 s76.8,93.1,100.4,149c24.5,57.8,36.9,119.2,36.9,182.5c0,63.2-12.4,124.6-36.9,182.5c-23.6,55.8-57.4,105.9-100.4,149 c-43,43-93.1,76.8-149,100.4C2849.1,1317.5,2787.7,1329.9,2724.5,1329.9z"></path> </defs> <clipPath id="SVGID_4_"> <use xlink:href="#SVGID_3_" style="overflow:visible;"></use> </clipPath> <g class="st4"> <polyline class="st2" points="1617.2,409.1 1674.1,429.1 1730.9,409.1 1787.8,429.1 1844.6,409.1 1901.5,429.1 1958.4,409.1 2015.2,429.1 2072.1,409.1 2128.9,429.1 2185.8,409.1 2242.6,429.1 2299.5,409.1 2356.4,429.1 2413.2,409.1 2470.1,429.1 2527,409.1 2583.8,429.1 2640.7,409.1 2697.5,429.1 2754.4,409.1 2811.3,429.1 2868.1,409.1 2925,429.1 2981.9,409.1 3038.7,429.1 3095.6,409.1 3152.4,429.1 3209.3,409.1 3266.2,429.1 3323,409.1 3379.9,429.1 3436.7,409.1 3493.6,429.1 3550.5,409.1 3607.3,429.1 3664.2,409.1 3721.1,429.1 3777.9,409.1 3834.8,429.1 3891.7,409.1 3948.5,429.1 "></polyline> </g> <g class="st4"> <polyline class="st2" points="1617.2,372.7 1674.1,392.7 1730.9,372.7 1787.8,392.7 1844.6,372.7 1901.5,392.7 1958.4,372.7 2015.2,392.7 2072.1,372.7 2128.9,392.7 2185.8,372.7 2242.6,392.7 2299.5,372.7 2356.4,392.7 2413.2,372.7 2470.1,392.7 2527,372.7 2583.8,392.7 2640.7,372.7 2697.5,392.7 2754.4,372.7 2811.3,392.7 2868.1,372.7 2925,392.7 2981.9,372.7 3038.7,392.7 3095.6,372.7 3152.4,392.7 3209.3,372.7 3266.2,392.7 3323,372.7 3379.9,392.7 3436.7,372.7 3493.6,392.7 3550.5,372.7 3607.3,392.7 3664.2,372.7 3721.1,392.7 3777.9,372.7 3834.8,392.7 3891.7,372.7 3948.5,392.7 "></polyline> </g> <g class="st4"> <polyline class="st2" points="1617.2,456.1 1674.1,476.1 1730.9,456.1 1787.8,476.1 1844.6,456.1 1901.5,476.1 1958.4,456.1 2015.2,476.1 2072.1,456.1 2128.9,476.1 2185.8,456.1 2242.6,476.1 2299.5,456.1 2356.4,476.1 2413.2,456.1 2470.1,476.1 2527,456.1 2583.8,476.1 2640.7,456.1 2697.5,476.1 2754.4,456.1 2811.3,476.1 2868.1,456.1 2925,476.1 2981.9,456.1 3038.7,476.1 3095.6,456.1 3152.4,476.1 3209.3,456.1 3266.2,476.1 3323,456.1 3379.9,476.1 3436.7,456.1 3493.6,476.1 3550.5,456.1 3607.3,476.1 3664.2,456.1 3721.1,476.1 3777.9,456.1 3834.8,476.1 3891.7,456.1 3948.5,476.1 "></polyline> </g> <g class="st4"> <polyline class="st2" points="1617.2,503.1 1674.1,523.1 1730.9,503.1 1787.8,523.1 1844.6,503.1 1901.5,523.1 1958.4,503.1 2015.2,523.1 2072.1,503.1 2128.9,523.1 2185.8,503.1 2242.6,523.1 2299.5,503.1 2356.4,523.1 2413.2,503.1 2470.1,523.1 2527,503.1 2583.8,523.1 2640.7,503.1 2697.5,523.1 2754.4,503.1 2811.3,523.1 2868.1,503.1 2925,523.1 2981.9,503.1 3038.7,523.1 3095.6,503.1 3152.4,523.1 3209.3,503.1 3266.2,523.1 3323,503.1 3379.9,523.1 3436.7,503.1 3493.6,523.1 3550.5,503.1 3607.3,523.1 3664.2,503.1 3721.1,523.1 3777.9,503.1 3834.8,523.1 3891.7,503.1 3948.5,523.1 "></polyline> </g> <g class="st4"> <polyline class="st2" points="1617.2,550.2 1674.1,570.2 1730.9,550.2 1787.8,570.2 1844.6,550.2 1901.5,570.2 1958.4,550.2 2015.2,570.2 2072.1,550.2 2128.9,570.2 2185.8,550.2 2242.6,570.2 2299.5,550.2 2356.4,570.2 2413.2,550.2 2470.1,570.2 2527,550.2 2583.8,570.2 2640.7,550.2 2697.5,570.2 2754.4,550.2 2811.3,570.2 2868.1,550.2 2925,570.2 2981.9,550.2 3038.7,570.2 3095.6,550.2 3152.4,570.2 3209.3,550.2 3266.2,570.2 3323,550.2 3379.9,570.2 3436.7,550.2 3493.6,570.2 3550.5,550.2 3607.3,570.2 3664.2,550.2 3721.1,570.2 3777.9,550.2 3834.8,570.2 3891.7,550.2 3948.5,570.2 "></polyline> </g> <g class="st4"> <polyline class="st2" points="1617.2,597.2 1674.1,617.2 1730.9,597.2 1787.8,617.2 1844.6,597.2 1901.5,617.2 1958.4,597.2 2015.2,617.2 2072.1,597.2 2128.9,617.2 2185.8,597.2 2242.6,617.2 2299.5,597.2 2356.4,617.2 2413.2,597.2 2470.1,617.2 2527,597.2 2583.8,617.2 2640.7,597.2 2697.5,617.2 2754.4,597.2 2811.3,617.2 2868.1,597.2 2925,617.2 2981.9,597.2 3038.7,617.2 3095.6,597.2 3152.4,617.2 3209.3,597.2 3266.2,617.2 3323,597.2 3379.9,617.2 3436.7,597.2 3493.6,617.2 3550.5,597.2 3607.3,617.2 3664.2,597.2 3721.1,617.2 3777.9,597.2 3834.8,617.2 3891.7,597.2 3948.5,617.2 "></polyline> </g> <g class="st4"> <polyline class="st2" points="1617.2,644.2 1674.1,664.2 1730.9,644.2 1787.8,664.2 1844.6,644.2 1901.5,664.2 1958.4,644.2 2015.2,664.2 2072.1,644.2 2128.9,664.2 2185.8,644.2 2242.6,664.2 2299.5,644.2 2356.4,664.2 2413.2,644.2 2470.1,664.2 2527,644.2 2583.8,664.2 2640.7,644.2 2697.5,664.2 2754.4,644.2 2811.3,664.2 2868.1,644.2 2925,664.2 2981.9,644.2 3038.7,664.2 3095.6,644.2 3152.4,664.2 3209.3,644.2 3266.2,664.2 3323,644.2 3379.9,664.2 3436.7,644.2 3493.6,664.2 3550.5,644.2 3607.3,664.2 3664.2,644.2 3721.1,664.2 3777.9,644.2 3834.8,664.2 3891.7,644.2 3948.5,664.2 "></polyline> </g> <g class="st4"> <polyline class="st2" points="1617.2,691.2 1674.1,711.2 1730.9,691.2 1787.8,711.2 1844.6,691.2 1901.5,711.2 1958.4,691.2 2015.2,711.2 2072.1,691.2 2128.9,711.2 2185.8,691.2 2242.6,711.2 2299.5,691.2 2356.4,711.2 2413.2,691.2 2470.1,711.2 2527,691.2 2583.8,711.2 2640.7,691.2 2697.5,711.2 2754.4,691.2 2811.3,711.2 2868.1,691.2 2925,711.2 2981.9,691.2 3038.7,711.2 3095.6,691.2 3152.4,711.2 3209.3,691.2 3266.2,711.2 3323,691.2 3379.9,711.2 3436.7,691.2 3493.6,711.2 3550.5,691.2 3607.3,711.2 3664.2,691.2 3721.1,711.2 3777.9,691.2 3834.8,711.2 3891.7,691.2 3948.5,711.2 "></polyline> </g> <g class="st4"> <polyline class="st2" points="1617.2,738.2 1674.1,758.2 1730.9,738.2 1787.8,758.2 1844.6,738.2 1901.5,758.2 1958.4,738.2 2015.2,758.2 2072.1,738.2 2128.9,758.2 2185.8,738.2 2242.6,758.2 2299.5,738.2 2356.4,758.2 2413.2,738.2 2470.1,758.2 2527,738.2 2583.8,758.2 2640.7,738.2 2697.5,758.2 2754.4,738.2 2811.3,758.2 2868.1,738.2 2925,758.2 2981.9,738.2 3038.7,758.2 3095.6,738.2 3152.4,758.2 3209.3,738.2 3266.2,758.2 3323,738.2 3379.9,758.2 3436.7,738.2 3493.6,758.2 3550.5,738.2 3607.3,758.2 3664.2,738.2 3721.1,758.2 3777.9,738.2 3834.8,758.2 3891.7,738.2 3948.5,758.2 "></polyline> </g> <g class="st4"> <polyline class="st2" points="1617.2,785.3 1674.1,805.3 1730.9,785.3 1787.8,805.3 1844.6,785.3 1901.5,805.3 1958.4,785.3 2015.2,805.3 2072.1,785.3 2128.9,805.3 2185.8,785.3 2242.6,805.3 2299.5,785.3 2356.4,805.3 2413.2,785.3 2470.1,805.3 2527,785.3 2583.8,805.3 2640.7,785.3 2697.5,805.3 2754.4,785.3 2811.3,805.3 2868.1,785.3 2925,805.3 2981.9,785.3 3038.7,805.3 3095.6,785.3 3152.4,805.3 3209.3,785.3 3266.2,805.3 3323,785.3 3379.9,805.3 3436.7,785.3 3493.6,805.3 3550.5,785.3 3607.3,805.3 3664.2,785.3 3721.1,805.3 3777.9,785.3 3834.8,805.3 3891.7,785.3 3948.5,805.3 "></polyline> </g> <g class="st4"> <polyline class="st2" points="1617.2,832.3 1674.1,852.3 1730.9,832.3 1787.8,852.3 1844.6,832.3 1901.5,852.3 1958.4,832.3 2015.2,852.3 2072.1,832.3 2128.9,852.3 2185.8,832.3 2242.6,852.3 2299.5,832.3 2356.4,852.3 2413.2,832.3 2470.1,852.3 2527,832.3 2583.8,852.3 2640.7,832.3 2697.5,852.3 2754.4,832.3 2811.3,852.3 2868.1,832.3 2925,852.3 2981.9,832.3 3038.7,852.3 3095.6,832.3 3152.4,852.3 3209.3,832.3 3266.2,852.3 3323,832.3 3379.9,852.3 3436.7,832.3 3493.6,852.3 3550.5,832.3 3607.3,852.3 3664.2,832.3 3721.1,852.3 3777.9,832.3 3834.8,852.3 3891.7,832.3 3948.5,852.3 "></polyline> </g> <g class="st4"> <polyline class="st2" points="1617.2,879.3 1674.1,899.3 1730.9,879.3 1787.8,899.3 1844.6,879.3 1901.5,899.3 1958.4,879.3 2015.2,899.3 2072.1,879.3 2128.9,899.3 2185.8,879.3 2242.6,899.3 2299.5,879.3 2356.4,899.3 2413.2,879.3 2470.1,899.3 2527,879.3 2583.8,899.3 2640.7,879.3 2697.5,899.3 2754.4,879.3 2811.3,899.3 2868.1,879.3 2925,899.3 2981.9,879.3 3038.7,899.3 3095.6,879.3 3152.4,899.3 3209.3,879.3 3266.2,899.3 3323,879.3 3379.9,899.3 3436.7,879.3 3493.6,899.3 3550.5,879.3 3607.3,899.3 3664.2,879.3 3721.1,899.3 3777.9,879.3 3834.8,899.3 3891.7,879.3 3948.5,899.3 "></polyline> </g> <g class="st4"> <polyline class="st2" points="1617.2,926.3 1674.1,946.3 1730.9,926.3 1787.8,946.3 1844.6,926.3 1901.5,946.3 1958.4,926.3 2015.2,946.3 2072.1,926.3 2128.9,946.3 2185.8,926.3 2242.6,946.3 2299.5,926.3 2356.4,946.3 2413.2,926.3 2470.1,946.3 2527,926.3 2583.8,946.3 2640.7,926.3 2697.5,946.3 2754.4,926.3 2811.3,946.3 2868.1,926.3 2925,946.3 2981.9,926.3 3038.7,946.3 3095.6,926.3 3152.4,946.3 3209.3,926.3 3266.2,946.3 3323,926.3 3379.9,946.3 3436.7,926.3 3493.6,946.3 3550.5,926.3 3607.3,946.3 3664.2,926.3 3721.1,946.3 3777.9,926.3 3834.8,946.3 3891.7,926.3 3948.5,946.3 "></polyline> </g> <g class="st4"> <polyline class="st2" points="1617.2,973.4 1674.1,993.4 1730.9,973.4 1787.8,993.4 1844.6,973.4 1901.5,993.4 1958.4,973.4 2015.2,993.4 2072.1,973.4 2128.9,993.4 2185.8,973.4 2242.6,993.4 2299.5,973.4 2356.4,993.4 2413.2,973.4 2470.1,993.4 2527,973.4 2583.8,993.4 2640.7,973.4 2697.5,993.4 2754.4,973.4 2811.3,993.4 2868.1,973.4 2925,993.4 2981.9,973.4 3038.7,993.4 3095.6,973.4 3152.4,993.4 3209.3,973.4 3266.2,993.4 3323,973.4 3379.9,993.4 3436.7,973.4 3493.6,993.4 3550.5,973.4 3607.3,993.4 3664.2,973.4 3721.1,993.4 3777.9,973.4 3834.8,993.4 3891.7,973.4 3948.5,993.4 "></polyline> </g> <g class="st4"> <polyline class="st2" points="1617.2,1020.4 1674.1,1040.4 1730.9,1020.4 1787.8,1040.4 1844.6,1020.4 1901.5,1040.4 1958.4,1020.4 2015.2,1040.4 2072.1,1020.4 2128.9,1040.4 2185.8,1020.4 2242.6,1040.4 2299.5,1020.4 2356.4,1040.4 2413.2,1020.4 2470.1,1040.4 2527,1020.4 2583.8,1040.4 2640.7,1020.4 2697.5,1040.4 2754.4,1020.4 2811.3,1040.4 2868.1,1020.4 2925,1040.4 2981.9,1020.4 3038.7,1040.4 3095.6,1020.4 3152.4,1040.4 3209.3,1020.4 3266.2,1040.4 3323,1020.4 3379.9,1040.4 3436.7,1020.4 3493.6,1040.4 3550.5,1020.4 3607.3,1040.4 3664.2,1020.4 3721.1,1040.4 3777.9,1020.4 3834.8,1040.4 3891.7,1020.4 3948.5,1040.4 "></polyline> </g> <g class="st4"> <polyline class="st2" points="1617.2,1067.4 1674.1,1087.4 1730.9,1067.4 1787.8,1087.4 1844.6,1067.4 1901.5,1087.4 1958.4,1067.4 2015.2,1087.4 2072.1,1067.4 2128.9,1087.4 2185.8,1067.4 2242.6,1087.4 2299.5,1067.4 2356.4,1087.4 2413.2,1067.4 2470.1,1087.4 2527,1067.4 2583.8,1087.4 2640.7,1067.4 2697.5,1087.4 2754.4,1067.4 2811.3,1087.4 2868.1,1067.4 2925,1087.4 2981.9,1067.4 3038.7,1087.4 3095.6,1067.4 3152.4,1087.4 3209.3,1067.4 3266.2,1087.4 3323,1067.4 3379.9,1087.4 3436.7,1067.4 3493.6,1087.4 3550.5,1067.4 3607.3,1087.4 3664.2,1067.4 3721.1,1087.4 3777.9,1067.4 3834.8,1087.4 3891.7,1067.4 3948.5,1087.4 "></polyline> </g> <g class="st4"> <polyline class="st2" points="1617.2,1114.4 1674.1,1134.4 1730.9,1114.4 1787.8,1134.4 1844.6,1114.4 1901.5,1134.4 1958.4,1114.4 2015.2,1134.4 2072.1,1114.4 2128.9,1134.4 2185.8,1114.4 2242.6,1134.4 2299.5,1114.4 2356.4,1134.4 2413.2,1114.4 2470.1,1134.4 2527,1114.4 2583.8,1134.4 2640.7,1114.4 2697.5,1134.4 2754.4,1114.4 2811.3,1134.4 2868.1,1114.4 2925,1134.4 2981.9,1114.4 3038.7,1134.4 3095.6,1114.4 3152.4,1134.4 3209.3,1114.4 3266.2,1134.4 3323,1114.4 3379.9,1134.4 3436.7,1114.4 3493.6,1134.4 3550.5,1114.4 3607.3,1134.4 3664.2,1114.4 3721.1,1134.4 3777.9,1114.4 3834.8,1134.4 3891.7,1114.4 3948.5,1134.4 "></polyline> </g> <g class="st4"> <polyline class="st2" points="1617.2,1161.4 1674.1,1181.4 1730.9,1161.4 1787.8,1181.4 1844.6,1161.4 1901.5,1181.4 1958.4,1161.4 2015.2,1181.4 2072.1,1161.4 2128.9,1181.4 2185.8,1161.4 2242.6,1181.4 2299.5,1161.4 2356.4,1181.4 2413.2,1161.4 2470.1,1181.4 2527,1161.4 2583.8,1181.4 2640.7,1161.4 2697.5,1181.4 2754.4,1161.4 2811.3,1181.4 2868.1,1161.4 2925,1181.4 2981.9,1161.4 3038.7,1181.4 3095.6,1161.4 3152.4,1181.4 3209.3,1161.4 3266.2,1181.4 3323,1161.4 3379.9,1181.4 3436.7,1161.4 3493.6,1181.4 3550.5,1161.4 3607.3,1181.4 3664.2,1161.4 3721.1,1181.4 3777.9,1161.4 3834.8,1181.4 3891.7,1161.4 3948.5,1181.4 "></polyline> </g> <g class="st4"> <polyline class="st2" points="1617.2,1208.5 1674.1,1228.5 1730.9,1208.5 1787.8,1228.5 1844.6,1208.5 1901.5,1228.5 1958.4,1208.5 2015.2,1228.5 2072.1,1208.5 2128.9,1228.5 2185.8,1208.5 2242.6,1228.5 2299.5,1208.5 2356.4,1228.5 2413.2,1208.5 2470.1,1228.5 2527,1208.5 2583.8,1228.5 2640.7,1208.5 2697.5,1228.5 2754.4,1208.5 2811.3,1228.5 2868.1,1208.5 2925,1228.5 2981.9,1208.5 3038.7,1228.5 3095.6,1208.5 3152.4,1228.5 3209.3,1208.5 3266.2,1228.5 3323,1208.5 3379.9,1228.5 3436.7,1208.5 3493.6,1228.5 3550.5,1208.5 3607.3,1228.5 3664.2,1208.5 3721.1,1228.5 3777.9,1208.5 3834.8,1228.5 3891.7,1208.5 3948.5,1228.5 "></polyline> </g> <g class="st4"> <polyline class="st2" points="1617.2,1255.5 1674.1,1275.5 1730.9,1255.5 1787.8,1275.5 1844.6,1255.5 1901.5,1275.5 1958.4,1255.5 2015.2,1275.5 2072.1,1255.5 2128.9,1275.5 2185.8,1255.5 2242.6,1275.5 2299.5,1255.5 2356.4,1275.5 2413.2,1255.5 2470.1,1275.5 2527,1255.5 2583.8,1275.5 2640.7,1255.5 2697.5,1275.5 2754.4,1255.5 2811.3,1275.5 2868.1,1255.5 2925,1275.5 2981.9,1255.5 3038.7,1275.5 3095.6,1255.5 3152.4,1275.5 3209.3,1255.5 3266.2,1275.5 3323,1255.5 3379.9,1275.5 3436.7,1255.5 3493.6,1275.5 3550.5,1255.5 3607.3,1275.5 3664.2,1255.5 3721.1,1275.5 3777.9,1255.5 3834.8,1275.5 3891.7,1255.5 3948.5,1275.5 "></polyline> </g> <g class="st4"> <polyline class="st2" points="1617.2,1302.5 1674.1,1322.5 1730.9,1302.5 1787.8,1322.5 1844.6,1302.5 1901.5,1322.5 1958.4,1302.5 2015.2,1322.5 2072.1,1302.5 2128.9,1322.5 2185.8,1302.5 2242.6,1322.5 2299.5,1302.5 2356.4,1322.5 2413.2,1302.5 2470.1,1322.5 2527,1302.5 2583.8,1322.5 2640.7,1302.5 2697.5,1322.5 2754.4,1302.5 2811.3,1322.5 2868.1,1302.5 2925,1322.5 2981.9,1302.5 3038.7,1322.5 3095.6,1302.5 3152.4,1322.5 3209.3,1302.5 3266.2,1322.5 3323,1302.5 3379.9,1322.5 3436.7,1302.5 3493.6,1322.5 3550.5,1302.5 3607.3,1322.5 3664.2,1302.5 3721.1,1322.5 3777.9,1302.5 3834.8,1322.5 3891.7,1302.5 3948.5,1322.5 "></polyline> </g> </g> <g> <g> <path d="M6030.2,886.8l13.1-0.2c10.3-0.2,17.3,3.2,17.5,13.2c0.2,9.7-6.7,14.3-16.7,14.5l-7.6,0.1l0.3,18.2l-5.8,0.1 L6030.2,886.8z M6043.2,909.6c8-0.1,11.8-3.1,11.7-9.6c-0.1-6.6-4.2-8.7-12.3-8.6l-6.5,0.1l0.3,18.2L6043.2,909.6z"></path> <path d="M6088.1,914.1c5.9-13.5,16.9-18.5,27.4-13.9s14.4,16,8.6,29.5c-5.9,13.5-17,18.8-27.6,14.2S6082.3,927.6,6088.1,914.1z M6118.6,927.4c4.6-10.5,2.4-19.1-5.1-22.4c-7.5-3.3-15.3,1-19.9,11.5s-2.6,19.4,5,22.7S6114,937.9,6118.6,927.4z"></path> <path d="M6165.2,933.2l9.7,10.6c6.3,6.9,8.4,14.1,1.3,20.6c-6.8,6.2-14.6,4.2-20.9-2.7l-5.8-6.3l-14.3,13.1l-4-4.3L6165.2,933.2z M6155.8,959.8l5.3,1.3l-8.2,26.6l-4.5-4.9L6155.8,959.8z M6158.3,957.9c4.8,5.3,9.6,6.2,14,2.2c4.5-4.1,3.4-8.4-1.5-13.7 l-5.2-5.7l-12.6,11.5L6158.3,957.9z"></path> <path d="M6203.9,999.7l-4.8-13l4.6-1.7l11.7,31.5l-4.6,1.7l-4.8-13l-38.4,14.2l-2-5.5L6203.9,999.7z"></path> <path d="M6220.6,1052.9l-0.4,26.5l-4.9-0.1l0.3-20.6l-15.5-0.2l-0.3,17.5l-4.9-0.1l0.3-17.5l-20.6-0.3l0.1-5.8L6220.6,1052.9z"></path> <path d="M6192.7,1104.7c13.5,5.9,18.4,16.9,13.7,27.5c-4.6,10.6-16.1,14.4-29.5,8.5c-13.5-5.9-18.7-17.1-14-27.6 C6167.5,1102.5,6179.2,1098.8,6192.7,1104.7z M6179.3,1135.2c10.5,4.6,19.1,2.5,22.4-5s-1-15.3-11.5-19.9 c-10.5-4.6-19.4-2.6-22.7,4.9C6164.3,1122.6,6168.9,1130.6,6179.3,1135.2z"></path> <path d="M6173.6,1181.1l-4.2,4l-28.2-29.8l-14.6,13.8l-3.4-3.6l18.8-17.8L6173.6,1181.1z"></path> <path d="M6125.8,1217l-5.2,2.6l-20.4-41.2l5.2-2.6L6125.8,1217z"></path> <path d="M6082.8,1210.3c1.7,14.6-5.3,24.4-16.8,25.8c-11.5,1.3-20.5-6.6-22.2-21.2c-1.7-14.6,5.3-24.8,16.7-26.1 S6081.1,1195.7,6082.8,1210.3z M6049.8,1214.2c1.3,11.4,7.5,17.8,15.7,16.8s12.7-8.6,11.4-20s-7.5-18.1-15.7-17.1 S6048.5,1202.8,6049.8,1214.2z"></path> <path d="M5988.1,1199l-14.5-7l1.9-4l14.5,7L5988.1,1199z"></path> <path d="M5944.2,1148c-18.6-3.6-29.5-5.3-35.5-1.2c-4.2,2.9-5.6,7.2-2.4,11.9c2.1,3.1,5.9,4.4,9.8,4.8l-0.8,4.6 c-5.5-0.8-10-2.6-13.2-7.4c-4.6-6.8-3.2-14,3.3-18.5c6.9-4.7,18.1-3,33.2-0.6c-1.5-1.9-3.2-4.1-4.5-6l-7.3-10.7l4.1-2.8 l16.2,23.8L5944.2,1148z"></path> <path d="M5901.6,1111.1c-14.5,3.5-23.6,0.2-25.7-8.5c-2.1-8.7,4.5-15.8,19-19.3c14.5-3.5,23.9-0.2,26,8.4 C5923,1100.4,5916.2,1107.6,5901.6,1111.1z M5896.2,1088.7c-12.7,3.1-17,7.7-15.8,12.8c1.2,5,7.2,7.2,19.9,4.2 c12.7-3.1,17.3-7.8,16.1-12.9C5915.2,1087.7,5908.9,1085.6,5896.2,1088.7z"></path> <path d="M5911.3,1057.1l1.2-10.2l-32.6-4l-1,8.1l-3.7-0.4c-0.2-4.1-0.9-7.2-2.1-9.8l0.5-4.4l39.6,4.8l1.1-9.2l4.8,0.6l-3,25 L5911.3,1057.1z"></path> <path d="M5914.2,1009.4c-5.1-2.7-6.7-8.3-6.7-13l-0.2-0.1c-3.6,1.9-7.9,2.9-12,0.7c-6.1-3.2-7.6-10.1-4.3-16.5 c3.6-6.9,10.2-8.9,16.4-5.7c4.1,2.2,6.1,7,6.7,10.4l0.2,0.1c3.9-2.4,8.5-4.3,13.8-1.6c5.9,3.1,7.9,10.6,3.9,18.3 C5928,1009.6,5920.5,1012.7,5914.2,1009.4z M5905.3,979.4c-3.9-2-8.3-1.2-10.6,3.2c-1.9,3.7-0.8,7.7,3,9.7 c4.7,2.5,9-0.9,13.4-4.6C5910,983.8,5908.2,980.9,5905.3,979.4z M5925.3,988.6c-5.1-2.7-9.6,1.4-14.8,5.9c0.4,4.3,2.1,8.1,5.7,10 c4.4,2.3,9.4,0.3,12-4.5C5930.6,995.4,5929.4,990.8,5925.3,988.6z"></path> <path d="M5959.1,940.1l13.5-8.6l2.4,3.7l-13.5,8.6L5959.1,940.1z"></path> </g> </g> <g> <g> <g> <path d="M4385,3121.1l0-7.9c0-6.2,2-10.4,8.1-10.4c5.8,0,8.5,4.1,8.6,10.1l0,4.5l10.9-0.1l0,3.5L4385,3121.1z M4398.7,3113.4 c0-4.8-1.8-7.1-5.7-7.1c-4,0-5.3,2.5-5.2,7.3l0,3.9l10.9-0.1L4398.7,3113.4z"></path> <path d="M4401.9,3085.6c-8-3.6-10.9-10.3-8.1-16.6c2.8-6.3,9.7-8.5,17.8-4.9c8,3.6,11.1,10.3,8.3,16.7 C4417,3087.1,4409.9,3089.3,4401.9,3085.6z M4410.1,3067.5c-6.3-2.8-11.5-1.6-13.5,2.9s0.5,9.2,6.8,12 c6.3,2.8,11.6,1.7,13.7-2.8C4419.1,3075.1,4416.3,3070.3,4410.1,3067.5z"></path> <path d="M4414.5,3038.9l6.5-5.7c4.2-3.7,8.6-4.9,12.4-0.6c3.6,4.1,2.4,8.8-1.8,12.5l-3.8,3.4l7.7,8.7l-2.6,2.3L4414.5,3038.9z M4429.3,3043.3c3.2-2.8,3.8-5.7,1.5-8.4c-2.4-2.7-5-2.1-8.2,0.7l-3.5,3.1l6.8,7.7L4429.3,3043.3z M4430.4,3044.9l0.9-3.2 l15.9,5.2l-3,2.6L4430.4,3044.9z"></path> <path d="M4455.5,3016.1l-7.9,2.7l-1-2.8l19.1-6.6l1,2.8l-7.9,2.7l8,23.3l-3.3,1.1L4455.5,3016.1z"></path> <path d="M4488.4,3006.8l15.9,0.6l-0.1,3l-12.4-0.5l-0.4,9.3l10.5,0.4l-0.1,3l-10.5-0.4l-0.5,12.3l-3.5-0.1L4488.4,3006.8z"></path> <path d="M4519.9,3024.5c3.8-8,10.5-10.7,16.8-7.7c6.2,3,8.3,9.9,4.5,17.9c-3.8,8-10.6,10.9-16.8,7.9 C4518.1,3039.6,4516.1,3032.5,4519.9,3024.5z M4537.9,3033.2c3-6.2,1.9-11.4-2.6-13.5c-4.4-2.1-9.2,0.3-12.2,6.5 c-3,6.2-2,11.6,2.5,13.7C4530.1,3042,4534.9,3039.4,4537.9,3033.2z"></path> <path d="M4565.9,3038l2.3,2.6l-18.5,16.3l8,9l-2.2,2l-10.3-11.7L4565.9,3038z"></path> <path d="M4586.8,3068.2l1.4,3.2l-25.2,11.2l-1.4-3.2L4586.8,3068.2z"></path> <path d="M4581.9,3094.6c8.8-0.6,14.5,3.9,15,10.8s-4.6,12.1-13.3,12.7c-8.8,0.6-14.7-3.9-15.2-10.8 C4567.8,3100.4,4573,3095.2,4581.9,3094.6z M4583.2,3114.5c6.9-0.5,10.9-4,10.5-8.9c-0.3-4.9-4.8-7.8-11.6-7.4 c-6.9,0.5-11.1,4-10.7,8.9C4571.7,3112,4576.4,3115,4583.2,3114.5z"></path> <path d="M4571.8,3152.5l-4.7,8.4l-2.3-1.3l4.7-8.4L4571.8,3152.5z"></path> <path d="M4538.6,3177.8c-2.9,11-4.4,17.4-2.3,21.2c1.5,2.6,4.1,3.7,7,2c1.9-1.1,2.9-3.3,3.3-5.6l2.7,0.7c-0.7,3.3-2,5.9-5,7.6 c-4.3,2.5-8.5,1.3-10.9-2.8c-2.5-4.3-1-11,1.1-19.9c-1.2,0.8-2.6,1.8-3.8,2.5l-6.7,3.9l-1.5-2.6l15-8.7L4538.6,3177.8z"></path> <path d="M4513.9,3202c1.4,8.9-1,14.1-6.3,15c-5.3,0.8-9.2-3.4-10.7-12.3c-1.4-8.9,1-14.3,6.3-15.2 C4508.5,3188.7,4512.5,3193.1,4513.9,3202z M4500.3,3204.2c1.2,7.8,3.8,10.5,6.9,10c3.1-0.5,4.7-4,3.4-11.7 c-1.2-7.8-3.9-10.7-6.9-10.2C4500.6,3192.7,4499,3196.4,4500.3,3204.2z"></path> <path d="M4481.3,3193.6l-6-1.2l-4,19.3l4.8,1l-0.4,2.2c-2.5-0.1-4.3,0.2-6,0.8l-2.6-0.5l4.8-23.4l-5.4-1.1l0.6-2.8l14.8,3.1 L4481.3,3193.6z"></path> <path d="M4452.3,3189.2c-1.9,2.9-5.3,3.6-8.1,3.3l-0.1,0.1c0.9,2.2,1.3,4.9-0.2,7.2c-2.2,3.5-6.5,4-10.1,1.7 c-3.9-2.5-4.8-6.6-2.5-10.1c1.5-2.4,4.5-3.3,6.6-3.5l0.1-0.1c-1.3-2.5-2.1-5.3-0.2-8.3c2.2-3.4,6.8-4.2,11.1-1.4 C4453.1,3181,4454.6,3185.6,4452.3,3189.2z M4433.8,3193c-1.4,2.2-1.1,4.9,1.4,6.5c2.1,1.3,4.6,0.9,6-1.3c1.7-2.7,0-5.4-2.1-8.2 C4436.7,3190.3,4434.9,3191.3,4433.8,3193z M4440.4,3181.5c-1.9,2.9,0.3,5.8,2.7,9.2c2.6,0,5-0.8,6.3-2.9 c1.6-2.5,0.7-5.6-2.1-7.4C4444.8,3178.7,4441.9,3179.2,4440.4,3181.5z"></path> <path d="M4412.4,3157.5l-4.3-8.6l2.4-1.2l4.3,8.6L4412.4,3157.5z"></path> </g> </g> <circle cx="4492" cy="3114" r="9"></circle> </g> <circle cx="-1609" cy="1686" r="16"></circle> <circle cx="-1502" cy="1781" r="16"></circle> <circle cx="-1609" cy="1920" r="16"></circle> <circle class="st2" cx="1928.9" cy="733.1" r="24.3"></circle> <circle class="st2" cx="1928.9" cy="1088" r="24.3"></circle> <circle cx="-1331" cy="1904" r="16"></circle> <circle cx="-1218" cy="1718" r="16"></circle> <g> </g> <circle class="st5" cx="2724.5" cy="862.8" r="392.9"></circle> <circle class="st6" cx="2660" cy="1347.4" r="222.2"></circle> <polygon class="st7" points="3448.2,800 2905.9,688.3 3080.3,1213.8 "></polygon> <rect x="2032.8" y="469.9" class="st8" width="411.1" height="411.1"></rect> <g> <polyline class="st2" points="5148,254.5 5185.5,274.5 5223,254.5 5260.5,274.5 5297.9,254.5 5335.4,274.5 5372.9,254.5 5410.4,274.5 5447.9,254.5 5485.4,274.5 5522.9,254.5 5560.3,274.5 5597.8,254.5 5635.3,274.5 5672.8,254.5 5710.3,274.5 5747.8,254.5 5785.3,274.5 5822.8,254.5 5860.2,274.5 5897.7,254.5 5935.2,274.5 5972.7,254.5 6010.2,274.5 6047.7,254.5 6085.2,274.5 6122.6,254.5 6160.1,274.5 6197.6,254.5 6235.1,274.5 6272.6,254.5 6310.1,274.5 6347.6,254.5 6385.1,274.5 6422.6,254.5 6460,274.5 6497.5,254.5 6535,274.5 6572.5,254.5 6610,274.5 6647.5,254.5 6685,274.5 "></polyline> </g> <g> <circle class="st2" cx="2640.3" cy="1406.5" r="169.1"></circle> <circle class="st2" cx="2615.3" cy="1433.1" r="169.1"></circle> <circle class="st2" cx="2590.2" cy="1459.6" r="169.1"></circle> <circle class="st2" cx="2565.2" cy="1486.2" r="169.1"></circle> <circle class="st2" cx="2540.2" cy="1512.7" r="169.1"></circle> <circle class="st2" cx="2515.2" cy="1539.3" r="169.1"></circle> <circle class="st2" cx="2490.1" cy="1565.8" r="169.1"></circle> <circle class="st2" cx="2465.1" cy="1592.4" r="169.1"></circle> </g> <line class="st9" x1="425.6" y1="1368.7" x2="1255.5" y2="538.7"></line> <line class="st9" x1="445" y1="1389.6" x2="1275" y2="559.6"></line> <line class="st9" x1="464.5" y1="1410.5" x2="1294.4" y2="580.6"></line> <circle class="st10" cx="2033.6" cy="476.7" r="66"></circle> <circle class="st2" cx="2091.2" cy="877.2" r="24.3"></circle> <g> <path class="st2" d="M-492,3211.5c25.8,0,25.8,20,51.6,20c25.8,0,25.8-20,51.6-20c25.8,0,25.8,20,51.6,20c25.8,0,25.8-20,51.6-20 c25.8,0,25.8,20,51.6,20c25.8,0,25.8-20,51.6-20c25.8,0,25.8,20,51.6,20c25.8,0,25.8-20,51.6-20c25.8,0,25.8,20,51.6,20 c25.8,0,25.8-20,51.6-20c25.8,0,25.8,20,51.6,20c25.8,0,25.8-20,51.6-20c25.8,0,25.8,20,51.6,20c25.8,0,25.8-20,51.6-20 c25.8,0,25.8,20,51.6,20c25.8,0,25.8-20,51.6-20c25.8,0,25.8,20,51.6,20c25.8,0,25.8-20,51.6-20c25.8,0,25.8,20,51.6,20 c25.8,0,25.8-20,51.6-20c25.8,0,25.8,20,51.6,20c25.8,0,25.8-20,51.6-20c25.8,0,25.8,20,51.6,20c25.8,0,25.8-20,51.6-20 c25.8,0,25.8,20,51.6,20c25.8,0,25.8-20,51.6-20c25.8,0,25.8,20,51.6,20c25.8,0,25.8-20,51.6-20c25.8,0,25.8,20,51.6,20 c25.8,0,25.8-20,51.6-20c25.8,0,25.8,20,51.6,20c25.8,0,25.8-20,51.6-20c25.8,0,25.8,20,51.6,20c25.8,0,25.8-20,51.6-20 c25.8,0,25.8,20,51.6,20c25.8,0,25.8-20,51.6-20c25.8,0,25.8,20,51.6,20c25.8,0,25.8-20,51.6-20c25.8,0,25.8,20,51.6,20 c25.8,0,25.8-20,51.6-20c25.8,0,25.8,20,51.6,20"></path> </g> </g> </svg> 