<?xml version="1.0" encoding="UTF-8"?>
<svg width="105px" height="86px" viewBox="0 0 105 86" version="1.1" xmlns="http://www.w3.org/2000/svg" xmlns:xlink="http://www.w3.org/1999/xlink">
    <!-- Generator: sketchtool 51 (57462) - http://www.bohemiancoding.com/sketch -->
    <title>8B180C86-BB2E-4143-87A0-8DB34E76EA5A</title>
    <desc>Created with sketchtool.</desc>
    <defs></defs>
    <g id="Symbols" stroke="none" stroke-width="1" fill="none" fill-rule="evenodd" opacity="0.3">
        <g id="UI/quote" fill="#9B9B9B">
            <path d="M42,43.05 L42,85.05 L0,85.05 L0,56.7 C0,45.7332785 1.866648,35.7000455 5.6,26.6 C9.333352,17.4999545 15.5166235,8.6333765 24.15,0 L39.55,11.9 C29.5166165,23.100056 23.800007,33.4832855 22.4,43.05 L42,43.05 Z M104.65,43.05 L104.65,85.05 L62.65,85.05 L62.65,56.7 C62.65,45.7332785 64.516648,35.7000455 68.25,26.6 C71.983352,17.4999545 78.1666235,8.6333765 86.8,0 L102.2,11.9 C92.1666165,23.100056 86.450007,33.4832855 85.05,43.05 L104.65,43.05 Z" id="“-copy"></path>
        </g>
    </g>
</svg>