<?xml version="1.0" encoding="UTF-8"?>
<svg width="20px" height="20px" viewBox="0 0 20 20" version="1.1" xmlns="http://www.w3.org/2000/svg" xmlns:xlink="http://www.w3.org/1999/xlink">
    <!-- Generator: Sketch 51 (57462) - http://www.bohemiancoding.com/sketch -->
    <title>UI/icon/error</title>
    <desc>Created with Sketch.</desc>
    <defs></defs>
    <g id="UI/icon/error" stroke="none" stroke-width="1" fill="none" fill-rule="evenodd">
        <path d="M10,0 C4.486,0 0,4.486 0,10 C0,15.514 4.486,20 10,20 C15.514,20 20,15.514 20,10 C20,4.486 15.514,0 10,0 Z M10,17.2222222 C9.08088889,17.2222222 8.33333333,16.4746667 8.33333333,15.5555556 C8.33333333,14.6364444 9.08088889,13.8888889 10,13.8888889 C10.9191111,13.8888889 11.6666667,14.6364444 11.6666667,15.5555556 C11.6666667,16.4746667 10.9191111,17.2222222 10,17.2222222 Z M12.7777778,5.71955556 C12.7777778,6.04444444 12.7215556,6.36377778 12.6104444,6.66888889 L10.5222222,12.412 C10.4422222,12.6317778 10.2335556,12.7777778 10,12.7777778 C9.76644444,12.7777778 9.55777778,12.6317778 9.47777778,12.412 L7.38933333,6.66888889 C7.27844444,6.364 7.22222222,6.04444444 7.22222222,5.71977778 L7.22222222,5.55555556 C7.22222222,4.02377778 8.46822222,2.77777778 10,2.77777778 C11.5317778,2.77777778 12.7777778,4.02377778 12.7777778,5.55555556 L12.7777778,5.71955556 Z" id="Shape" fill="#D0021B" fill-rule="nonzero"></path>
    </g>
</svg>