<svg xmlns="http://www.w3.org/2000/svg" width="96px" height="48px" viewBox="0 0 96 48">
 <!-- behance--> 
<g transform="translate(0, 0)"><g class="nc-icon-wrapper" fill="#111111"><path d="M6.938 4.503c.702 0 1.34.06 1.92.188.577.13 1.07.33 1.485.61.41.28.733.65.96 1.12.225.47.34 1.05.34 1.73 0 .74-.17 1.36-.507 1.86-.338.5-.837.9-1.502 1.22.906.26 1.576.72 2.022 1.37.448.66.665 1.45.665 2.36 0 .75-.13 1.39-.41 1.93-.28.55-.67 1-1.16 1.35-.48.348-1.05.6-1.67.767a7.316 7.316 0 0 1-1.91.254H0V4.51h6.938v-.007zM16.94 16.665c.44.428 1.073.643 1.894.643.59 0 1.1-.148 1.53-.447.424-.29.68-.61.78-.94h2.588c-.403 1.28-1.048 2.2-1.9 2.75-.85.56-1.884.83-3.08.83-.837 0-1.584-.13-2.272-.4a4.948 4.948 0 0 1-1.72-1.14 5.1 5.1 0 0 1-1.077-1.77c-.253-.69-.373-1.45-.373-2.27 0-.803.135-1.54.403-2.23.27-.7.644-1.28 1.12-1.79.495-.51 1.063-.895 1.736-1.194s1.4-.433 2.22-.433c.91 0 1.69.164 2.38.523a4.8 4.8 0 0 1 1.66 1.4c.44.586.75 1.26.94 2.02.19.75.25 1.54.21 2.38h-7.69c0 .84.28 1.632.71 2.065l-.08.03zm-10.24.05c.317 0 .62-.03.906-.093.29-.06.548-.165.763-.3.21-.135.39-.328.52-.583.13-.24.19-.57.19-.96 0-.75-.22-1.29-.64-1.62-.43-.32-.99-.48-1.69-.48H3.24v4.05H6.7v-.03zm13.607-5.65c-.352-.385-.94-.592-1.657-.592-.468 0-.855.074-1.166.238-.302.15-.55.35-.74.59-.19.24-.317.48-.392.75-.075.26-.12.5-.135.71h4.762c-.07-.75-.33-1.3-.68-1.69v.01zM6.52 10.45c.574 0 1.05-.134 1.425-.412.374-.27.554-.72.554-1.338 0-.344-.07-.625-.18-.846-.13-.22-.3-.39-.5-.512-.21-.124-.45-.21-.72-.257a4.426 4.426 0 0 0-.84-.074H3.23v3.44h3.29zm9.098-4.958h5.968v1.454h-5.968V5.48v.01z"/></g></g>
 <!-- linkedin--> 
<g transform="translate(24, 0)"><g class="nc-icon-wrapper" fill="#111111"><path d="M20.447 20.452h-3.554v-5.569c0-1.328-.027-3.037-1.852-3.037-1.853 0-2.136 1.445-2.136 2.939v5.667H9.351V9h3.414v1.561h.046c.477-.9 1.637-1.85 3.37-1.85 3.601 0 4.267 2.37 4.267 5.455v6.286zM5.337 7.433a2.062 2.062 0 0 1-2.063-2.065 2.064 2.064 0 1 1 2.063 2.065zm1.782 13.019H3.555V9h3.564v11.452zM22.225 0H1.771C.792 0 0 .774 0 1.729v20.542C0 23.227.792 24 1.771 24h20.451C23.2 24 24 23.227 24 22.271V1.729C24 .774 23.2 0 22.222 0h.003z"/></g></g>
 <!-- dribbble--> 
<g transform="translate(48, 0)"><g class="nc-icon-wrapper" fill="#111111"><path d="M12 24C5.385 24 0 18.615 0 12S5.385 0 12 0s12 5.385 12 12-5.385 12-12 12zm10.12-10.358c-.35-.11-3.17-.953-6.384-.438 1.34 3.684 1.887 6.684 1.992 7.308a10.28 10.28 0 0 0 4.395-6.87zm-6.115 7.808c-.153-.9-.75-4.032-2.19-7.77l-.066.02c-5.79 2.015-7.86 6.025-8.04 6.4a10.161 10.161 0 0 0 6.29 2.166c1.42 0 2.77-.29 4-.814zm-11.62-2.58c.232-.4 3.045-5.055 8.332-6.765.135-.045.27-.084.405-.12-.26-.585-.54-1.167-.832-1.74C7.17 11.775 2.206 11.71 1.756 11.7l-.004.312c0 2.633.998 5.037 2.634 6.855zm-2.42-8.955c.46.008 4.683.026 9.477-1.248a65.473 65.473 0 0 0-3.8-5.928 10.275 10.275 0 0 0-5.676 7.17zM9.6 2.052c.282.38 2.145 2.914 3.822 6 3.645-1.365 5.19-3.44 5.373-3.702A10.19 10.19 0 0 0 12 1.764c-.825 0-1.63.1-2.4.285zm10.335 3.483c-.218.29-1.935 2.493-5.724 4.04.24.49.47.985.68 1.486.08.18.15.36.22.53 3.41-.43 6.8.26 7.14.33-.02-2.42-.88-4.64-2.31-6.38z"/></g></g>
 <!-- instagram--> 
<g transform="translate(72, 0)"><g class="nc-icon-wrapper" fill="#111111"><path d="M12 0C8.74 0 8.333.015 7.053.072 5.775.132 4.905.333 4.14.63c-.789.306-1.459.717-2.126 1.384S.935 3.35.63 4.14C.333 4.905.131 5.775.072 7.053.012 8.333 0 8.74 0 12s.015 3.667.072 4.947c.06 1.277.261 2.148.558 2.913a5.885 5.885 0 0 0 1.384 2.126A5.868 5.868 0 0 0 4.14 23.37c.766.296 1.636.499 2.913.558C8.333 23.988 8.74 24 12 24s3.667-.015 4.947-.072c1.277-.06 2.148-.262 2.913-.558a5.898 5.898 0 0 0 2.126-1.384 5.86 5.86 0 0 0 1.384-2.126c.296-.765.499-1.636.558-2.913.06-1.28.072-1.687.072-4.947s-.015-3.667-.072-4.947c-.06-1.277-.262-2.149-.558-2.913a5.89 5.89 0 0 0-1.384-2.126A5.847 5.847 0 0 0 19.86.63c-.765-.297-1.636-.499-2.913-.558C15.667.012 15.26 0 12 0zm0 2.16c3.203 0 3.585.016 4.85.071 1.17.055 1.805.249 2.227.415.562.217.96.477 1.382.896.419.42.679.819.896 1.381.164.422.36 1.057.413 2.227.057 1.266.07 1.646.07 4.85s-.015 3.585-.074 4.85c-.061 1.17-.256 1.805-.421 2.227a3.81 3.81 0 0 1-.899 1.382 3.744 3.744 0 0 1-1.38.896c-.42.164-1.065.36-2.235.413-1.274.057-1.649.07-4.859.07-3.211 0-3.586-.015-4.859-.074-1.171-.061-1.816-.256-2.236-.421a3.716 3.716 0 0 1-1.379-.899 3.644 3.644 0 0 1-.9-1.38c-.165-.42-.359-1.065-.42-2.235-.045-1.26-.061-1.649-.061-4.844 0-3.196.016-3.586.061-4.861.061-1.17.255-1.814.42-2.234.21-.57.479-.96.9-1.381.419-.419.81-.689 1.379-.898.42-.166 1.051-.361 2.221-.421 1.275-.045 1.65-.06 4.859-.06l.045.03zm0 3.678a6.162 6.162 0 1 0 0 12.324 6.162 6.162 0 1 0 0-12.324zM12 16c-2.21 0-4-1.79-4-4s1.79-4 4-4 4 1.79 4 4-1.79 4-4 4zm7.846-10.405a1.441 1.441 0 0 1-2.88 0 1.44 1.44 0 0 1 2.88 0z"/></g></g>
 <!-- behance:hover--> 
<g transform="translate(0, 24)"><g class="nc-icon-wrapper" fill="#f4a261"><path d="M6.938 4.503c.702 0 1.34.06 1.92.188.577.13 1.07.33 1.485.61.41.28.733.65.96 1.12.225.47.34 1.05.34 1.73 0 .74-.17 1.36-.507 1.86-.338.5-.837.9-1.502 1.22.906.26 1.576.72 2.022 1.37.448.66.665 1.45.665 2.36 0 .75-.13 1.39-.41 1.93-.28.55-.67 1-1.16 1.35-.48.348-1.05.6-1.67.767a7.316 7.316 0 0 1-1.91.254H0V4.51h6.938v-.007zM16.94 16.665c.44.428 1.073.643 1.894.643.59 0 1.1-.148 1.53-.447.424-.29.68-.61.78-.94h2.588c-.403 1.28-1.048 2.2-1.9 2.75-.85.56-1.884.83-3.08.83-.837 0-1.584-.13-2.272-.4a4.948 4.948 0 0 1-1.72-1.14 5.1 5.1 0 0 1-1.077-1.77c-.253-.69-.373-1.45-.373-2.27 0-.803.135-1.54.403-2.23.27-.7.644-1.28 1.12-1.79.495-.51 1.063-.895 1.736-1.194s1.4-.433 2.22-.433c.91 0 1.69.164 2.38.523a4.8 4.8 0 0 1 1.66 1.4c.44.586.75 1.26.94 2.02.19.75.25 1.54.21 2.38h-7.69c0 .84.28 1.632.71 2.065l-.08.03zm-10.24.05c.317 0 .62-.03.906-.093.29-.06.548-.165.763-.3.21-.135.39-.328.52-.583.13-.24.19-.57.19-.96 0-.75-.22-1.29-.64-1.62-.43-.32-.99-.48-1.69-.48H3.24v4.05H6.7v-.03zm13.607-5.65c-.352-.385-.94-.592-1.657-.592-.468 0-.855.074-1.166.238-.302.15-.55.35-.74.59-.19.24-.317.48-.392.75-.075.26-.12.5-.135.71h4.762c-.07-.75-.33-1.3-.68-1.69v.01zM6.52 10.45c.574 0 1.05-.134 1.425-.412.374-.27.554-.72.554-1.338 0-.344-.07-.625-.18-.846-.13-.22-.3-.39-.5-.512-.21-.124-.45-.21-.72-.257a4.426 4.426 0 0 0-.84-.074H3.23v3.44h3.29zm9.098-4.958h5.968v1.454h-5.968V5.48v.01z"/></g></g>
 <!-- linkedin:hover--> 
<g transform="translate(24, 24)"><g class="nc-icon-wrapper" fill="#f4a261"><path d="M20.447 20.452h-3.554v-5.569c0-1.328-.027-3.037-1.852-3.037-1.853 0-2.136 1.445-2.136 2.939v5.667H9.351V9h3.414v1.561h.046c.477-.9 1.637-1.85 3.37-1.85 3.601 0 4.267 2.37 4.267 5.455v6.286zM5.337 7.433a2.062 2.062 0 0 1-2.063-2.065 2.064 2.064 0 1 1 2.063 2.065zm1.782 13.019H3.555V9h3.564v11.452zM22.225 0H1.771C.792 0 0 .774 0 1.729v20.542C0 23.227.792 24 1.771 24h20.451C23.2 24 24 23.227 24 22.271V1.729C24 .774 23.2 0 22.222 0h.003z"/></g></g>
 <!-- dribbble:hover--> 
<g transform="translate(48, 24)"><g class="nc-icon-wrapper" fill="#f4a261"><path d="M12 24C5.385 24 0 18.615 0 12S5.385 0 12 0s12 5.385 12 12-5.385 12-12 12zm10.12-10.358c-.35-.11-3.17-.953-6.384-.438 1.34 3.684 1.887 6.684 1.992 7.308a10.28 10.28 0 0 0 4.395-6.87zm-6.115 7.808c-.153-.9-.75-4.032-2.19-7.77l-.066.02c-5.79 2.015-7.86 6.025-8.04 6.4a10.161 10.161 0 0 0 6.29 2.166c1.42 0 2.77-.29 4-.814zm-11.62-2.58c.232-.4 3.045-5.055 8.332-6.765.135-.045.27-.084.405-.12-.26-.585-.54-1.167-.832-1.74C7.17 11.775 2.206 11.71 1.756 11.7l-.004.312c0 2.633.998 5.037 2.634 6.855zm-2.42-8.955c.46.008 4.683.026 9.477-1.248a65.473 65.473 0 0 0-3.8-5.928 10.275 10.275 0 0 0-5.676 7.17zM9.6 2.052c.282.38 2.145 2.914 3.822 6 3.645-1.365 5.19-3.44 5.373-3.702A10.19 10.19 0 0 0 12 1.764c-.825 0-1.63.1-2.4.285zm10.335 3.483c-.218.29-1.935 2.493-5.724 4.04.24.49.47.985.68 1.486.08.18.15.36.22.53 3.41-.43 6.8.26 7.14.33-.02-2.42-.88-4.64-2.31-6.38z"/></g></g>
 <!-- instagram:hover--> 
<g transform="translate(72, 24)"><g class="nc-icon-wrapper" fill="#f4a261"><path d="M12 0C8.74 0 8.333.015 7.053.072 5.775.132 4.905.333 4.14.63c-.789.306-1.459.717-2.126 1.384S.935 3.35.63 4.14C.333 4.905.131 5.775.072 7.053.012 8.333 0 8.74 0 12s.015 3.667.072 4.947c.06 1.277.261 2.148.558 2.913a5.885 5.885 0 0 0 1.384 2.126A5.868 5.868 0 0 0 4.14 23.37c.766.296 1.636.499 2.913.558C8.333 23.988 8.74 24 12 24s3.667-.015 4.947-.072c1.277-.06 2.148-.262 2.913-.558a5.898 5.898 0 0 0 2.126-1.384 5.86 5.86 0 0 0 1.384-2.126c.296-.765.499-1.636.558-2.913.06-1.28.072-1.687.072-4.947s-.015-3.667-.072-4.947c-.06-1.277-.262-2.149-.558-2.913a5.89 5.89 0 0 0-1.384-2.126A5.847 5.847 0 0 0 19.86.63c-.765-.297-1.636-.499-2.913-.558C15.667.012 15.26 0 12 0zm0 2.16c3.203 0 3.585.016 4.85.071 1.17.055 1.805.249 2.227.415.562.217.96.477 1.382.896.419.42.679.819.896 1.381.164.422.36 1.057.413 2.227.057 1.266.07 1.646.07 4.85s-.015 3.585-.074 4.85c-.061 1.17-.256 1.805-.421 2.227a3.81 3.81 0 0 1-.899 1.382 3.744 3.744 0 0 1-1.38.896c-.42.164-1.065.36-2.235.413-1.274.057-1.649.07-4.859.07-3.211 0-3.586-.015-4.859-.074-1.171-.061-1.816-.256-2.236-.421a3.716 3.716 0 0 1-1.379-.899 3.644 3.644 0 0 1-.9-1.38c-.165-.42-.359-1.065-.42-2.235-.045-1.26-.061-1.649-.061-4.844 0-3.196.016-3.586.061-4.861.061-1.17.255-1.814.42-2.234.21-.57.479-.96.9-1.381.419-.419.81-.689 1.379-.898.42-.166 1.051-.361 2.221-.421 1.275-.045 1.65-.06 4.859-.06l.045.03zm0 3.678a6.162 6.162 0 1 0 0 12.324 6.162 6.162 0 1 0 0-12.324zM12 16c-2.21 0-4-1.79-4-4s1.79-4 4-4 4 1.79 4 4-1.79 4-4 4zm7.846-10.405a1.441 1.441 0 0 1-2.88 0 1.44 1.44 0 0 1 2.88 0z"/></g></g>
</svg>